<svg width="173" height="173" viewBox="0 0 173 173" fill="none" xmlns="http://www.w3.org/2000/svg">
<path d="M0 86.5C0 38.7274 38.7274 0 86.5 0C134.273 0 173 38.7274 173 86.5C173 134.273 134.273 173 86.5 173C38.7274 173 0 134.273 0 86.5Z" fill="url(#paint0_linear_1429_83)"/>
<path d="M159.751 89.1947L159.716 89.8025L162.745 92.3294L162.648 94.0225L159.09 91.0405L154.941 93.8284L155.037 92.157L158.364 89.8661L158.407 89.1172L155.222 88.9334L155.308 87.4465L163 87.8902L162.915 89.3771L159.751 89.1947Z" fill="#F7F1F3"/>
<path d="M154.698 96.17L162.284 97.5209L161.712 100.743C161.65 101.092 161.518 101.4 161.317 101.666C161.121 101.941 160.883 102.163 160.603 102.334C160.33 102.506 160.03 102.626 159.702 102.693C159.381 102.761 159.068 102.767 158.761 102.713C158.441 102.656 158.138 102.543 157.852 102.374C157.573 102.207 157.334 101.999 157.136 101.75C156.937 101.501 156.793 101.218 156.702 100.9C156.612 100.582 156.597 100.248 156.66 99.8982L156.979 98.1L154.436 97.6471L154.698 96.17ZM158.271 98.3302L157.968 100.043C157.919 100.314 157.99 100.558 158.179 100.776C158.367 101.001 158.65 101.147 159.027 101.214C159.22 101.249 159.396 101.25 159.555 101.22C159.722 101.191 159.867 101.139 159.991 101.066C160.114 100.992 160.212 100.895 160.284 100.776C160.363 100.664 160.414 100.545 160.436 100.416L160.729 98.7678L158.271 98.3302Z" fill="#F7F1F3"/>
<path d="M152.821 105.055C152.843 104.979 152.875 104.898 152.916 104.812C152.95 104.723 152.991 104.634 153.041 104.543C153.091 104.452 153.148 104.363 153.211 104.276C153.273 104.196 153.338 104.128 153.407 104.073L154.537 104.615C154.473 104.679 154.393 104.768 154.299 104.884C154.209 105.008 154.142 105.143 154.099 105.289C154.039 105.491 154.043 105.681 154.11 105.86C154.183 106.048 154.352 106.242 154.617 106.442L160.854 105.342L160.393 106.895L155.87 107.519L159.352 110.396L158.903 111.907L154.061 107.626C153.773 107.374 153.534 107.14 153.341 106.924C153.156 106.709 153.01 106.5 152.905 106.294C152.805 106.098 152.747 105.899 152.732 105.698C152.723 105.499 152.753 105.285 152.821 105.055Z" fill="#F7F1F3"/>
<path d="M155.058 118.062L156.292 115.091L150.39 112.632L150.961 111.257L158.075 114.221L156.27 118.568L155.058 118.062Z" fill="#F7F1F3"/>
<path d="M151.706 122.219C150.877 121.669 150.201 121.171 149.679 120.724C149.157 120.277 148.77 119.847 148.518 119.435C148.273 119.025 148.157 118.622 148.17 118.223C148.183 117.825 148.314 117.4 148.563 116.95L149.782 117.526C149.682 117.752 149.633 117.969 149.634 118.177C149.631 118.391 149.729 118.627 149.925 118.885C150.118 119.149 150.433 119.456 150.868 119.805C151.31 120.157 151.914 120.591 152.679 121.107L154.49 122.321L152.231 126.411L145.489 122.676L146.208 121.373L151.802 124.471L152.684 122.873L151.706 122.219Z" fill="#F7F1F3"/>
<path d="M142.096 127.692C142.431 127.238 142.824 126.889 143.274 126.645C143.725 126.412 144.195 126.268 144.684 126.216C145.174 126.174 145.662 126.22 146.148 126.354C146.633 126.489 147.074 126.702 147.469 126.995C147.882 127.301 148.222 127.67 148.488 128.102C148.75 128.539 148.928 129 149.021 129.483C149.109 129.973 149.1 130.467 148.993 130.964C148.893 131.467 148.681 131.936 148.358 132.373C148.027 132.822 147.633 133.161 147.175 133.39C146.72 133.629 146.247 133.77 145.757 133.813C145.266 133.855 144.778 133.809 144.293 133.675C143.807 133.54 143.369 133.328 142.98 133.04C142.567 132.734 142.227 132.365 141.961 131.933C141.701 131.506 141.524 131.05 141.431 130.567C141.344 130.088 141.351 129.597 141.452 129.095C141.558 128.597 141.773 128.129 142.096 127.692ZM146.566 128.219C146.298 128.021 146.009 127.87 145.699 127.766C145.389 127.662 145.082 127.615 144.778 127.624C144.47 127.639 144.176 127.715 143.896 127.85C143.612 127.991 143.364 128.204 143.154 128.49C142.939 128.781 142.807 129.081 142.76 129.388C142.715 129.706 142.735 130.014 142.821 130.312C142.902 130.616 143.037 130.896 143.226 131.153C143.415 131.42 143.638 131.648 143.894 131.838C144.162 132.036 144.453 132.184 144.768 132.282C145.078 132.386 145.387 132.43 145.695 132.415C145.999 132.406 146.29 132.328 146.568 132.183C146.848 132.048 147.091 131.84 147.298 131.561C147.513 131.269 147.643 130.965 147.689 130.647C147.74 130.333 147.723 130.028 147.637 129.73C147.557 129.436 147.422 129.156 147.232 128.889C147.044 128.632 146.822 128.409 146.566 128.219Z" fill="#F7F1F3"/>
<path d="M141.493 135.042C141.832 135.37 142.107 135.752 142.319 136.189C142.532 136.636 142.655 137.103 142.689 137.589C142.723 138.076 142.658 138.566 142.493 139.061C142.327 139.556 142.036 140.02 141.619 140.453C141.127 140.964 140.59 141.296 140.01 141.45C139.424 141.609 138.864 141.606 138.329 141.442L138.558 140.061C138.784 140.139 139 140.176 139.204 140.173C139.414 140.174 139.608 140.145 139.786 140.086C139.964 140.026 140.129 139.944 140.281 139.839C140.438 139.738 140.576 139.626 140.697 139.501C140.958 139.229 141.132 138.939 141.219 138.63C141.3 138.326 141.318 138.021 141.272 137.714C141.226 137.418 141.123 137.128 140.965 136.843C140.811 136.564 140.625 136.319 140.407 136.107C140.162 135.871 139.888 135.681 139.583 135.538C139.284 135.399 138.981 135.318 138.673 135.292C138.361 135.272 138.057 135.311 137.762 135.408C137.462 135.511 137.196 135.682 136.965 135.922C136.845 136.047 136.735 136.193 136.635 136.359C136.536 136.524 136.462 136.7 136.414 136.885C136.361 137.076 136.337 137.274 136.34 137.479C136.349 137.689 136.399 137.898 136.489 138.106L135.13 138.5C135.007 138.21 134.946 137.903 134.945 137.58C134.945 137.268 134.99 136.954 135.082 136.64C135.169 136.331 135.297 136.031 135.465 135.741C135.634 135.451 135.827 135.194 136.043 134.97C136.425 134.573 136.857 134.292 137.34 134.124C137.823 133.957 138.313 133.881 138.81 133.898C139.307 133.925 139.79 134.035 140.259 134.226C140.728 134.428 141.139 134.7 141.493 135.042Z" fill="#F7F1F3"/>
<path d="M131.273 139.547C131.334 139.496 131.406 139.447 131.488 139.398C131.565 139.344 131.65 139.293 131.742 139.246C131.834 139.198 131.931 139.157 132.032 139.12C132.128 139.089 132.22 139.069 132.308 139.063L132.941 140.145C132.852 140.162 132.736 140.192 132.593 140.234C132.449 140.287 132.318 140.361 132.201 140.458C132.038 140.591 131.935 140.751 131.891 140.937C131.846 141.133 131.877 141.389 131.985 141.703L137.767 144.294L136.516 145.321L132.421 143.299L133.696 147.636L132.479 148.636L130.862 142.372C130.765 142.002 130.697 141.674 130.659 141.386C130.625 141.105 130.622 140.85 130.65 140.621C130.677 140.402 130.74 140.205 130.839 140.029C130.944 139.859 131.088 139.699 131.273 139.547Z" fill="#F7F1F3"/>
<path d="M124.89 152.171L126.96 150.833L123.494 145.453L124.743 144.645L128.209 150.025L130.279 148.687L130.991 149.792L125.603 153.277L124.89 152.171Z" fill="#F7F1F3"/>
<path d="M116.802 149.202C117.31 148.955 117.819 148.829 118.331 148.823C118.839 148.826 119.321 148.918 119.779 149.099C120.232 149.289 120.643 149.557 121.011 149.902C121.379 150.247 121.67 150.641 121.884 151.085C122.108 151.548 122.238 152.033 122.274 152.539C122.303 153.048 122.246 153.538 122.105 154.01C121.956 154.484 121.719 154.917 121.394 155.309C121.072 155.707 120.667 156.024 120.178 156.261C119.677 156.504 119.171 156.621 118.66 156.611C118.145 156.611 117.661 156.516 117.207 156.325C116.753 156.135 116.342 155.867 115.975 155.522C115.607 155.177 115.317 154.786 115.106 154.349C114.882 153.886 114.752 153.401 114.717 152.895C114.684 152.396 114.739 151.91 114.881 151.439C115.026 150.974 115.259 150.542 115.582 150.144C115.907 149.753 116.314 149.439 116.802 149.202ZM120.517 151.748C120.372 151.448 120.186 151.18 119.959 150.944C119.732 150.707 119.482 150.523 119.209 150.39C118.929 150.26 118.634 150.189 118.323 150.179C118.006 150.172 117.688 150.246 117.369 150.4C117.044 150.558 116.789 150.763 116.604 151.013C116.417 151.273 116.292 151.555 116.23 151.859C116.161 152.166 116.151 152.477 116.198 152.792C116.243 153.117 116.334 153.423 116.473 153.71C116.618 154.01 116.807 154.277 117.041 154.51C117.267 154.746 117.521 154.929 117.801 155.059C118.074 155.192 118.368 155.259 118.681 155.26C118.992 155.27 119.304 155.2 119.616 155.048C119.942 154.89 120.198 154.681 120.386 154.421C120.577 154.167 120.703 153.888 120.765 153.584C120.831 153.287 120.841 152.976 120.797 152.651C120.749 152.336 120.656 152.035 120.517 151.748Z" fill="#F7F1F3"/>
<path d="M110.039 160.342L108.64 160.812L106.192 153.493L107.592 153.023L108.547 155.879C108.636 155.803 108.729 155.729 108.828 155.658C108.926 155.587 109.036 155.516 109.157 155.445C109.28 155.38 109.419 155.315 109.572 155.248C109.727 155.188 109.904 155.125 110.103 155.058C110.536 154.913 110.92 154.853 111.256 154.878C111.595 154.909 111.895 155.007 112.156 155.172C112.41 155.339 112.629 155.56 112.812 155.835C112.991 156.118 113.14 156.439 113.26 156.796L114.001 159.013L112.601 159.482L111.995 157.668C111.901 157.386 111.798 157.149 111.688 156.957C111.571 156.767 111.44 156.624 111.293 156.528C111.14 156.434 110.967 156.385 110.775 156.381C110.582 156.376 110.359 156.417 110.106 156.502C109.824 156.596 109.589 156.702 109.399 156.819C109.212 156.943 109.072 157.063 108.981 157.178L110.039 160.342Z" fill="#F7F1F3"/>
<path d="M98.989 163.084L97.4785 155.515L98.9365 155.223L99.581 158.453L103.008 157.767L102.363 154.536L103.832 154.242L105.342 161.811L103.873 162.106L103.263 159.046L99.8363 159.732L100.447 162.792L98.989 163.084Z" fill="#F7F1F3"/>
<path d="M92.8622 163.814L91.5411 163.902L88.1093 156.393L89.6469 156.291L90.4883 158.164L93.1738 157.986L93.7509 156.02L95.2886 155.918L92.8622 163.814ZM90.8284 159.198L92.0893 162.155L92.9941 159.055L90.8284 159.198Z" fill="#F7F1F3"/>
<path d="M81.6538 156.183L81.4766 159.036L82.7005 159.113L84.6107 156.367L86.257 156.469L84.1838 159.39C84.613 159.598 84.9489 159.91 85.1913 160.324C85.4338 160.739 85.5389 161.207 85.5065 161.727C85.4863 162.053 85.4059 162.356 85.2652 162.638C85.1244 162.92 84.9388 163.166 84.7083 163.377C84.4777 163.588 84.2104 163.749 83.9062 163.861C83.5949 163.972 83.2623 164.017 82.9085 163.995L79.6916 163.794L80.1699 156.09L81.6538 156.183ZM81.2549 162.606L82.8255 162.704C82.9699 162.713 83.1089 162.693 83.2425 162.643C83.3756 162.6 83.4994 162.532 83.614 162.437C83.721 162.35 83.8114 162.235 83.8854 162.095C83.9517 161.961 83.9902 161.807 84.001 161.634C84.0226 161.286 83.9388 161.002 83.7496 160.779C83.5532 160.556 83.3034 160.435 83.0001 160.417L81.3971 160.317L81.2549 162.606Z" fill="#F7F1F3"/>
<path d="M73.1581 156.55L72.8958 156.481C72.6911 156.434 72.497 156.446 72.3136 156.518C72.1301 156.589 71.9391 156.76 71.7407 157.029C71.5422 157.299 71.3281 157.685 71.0985 158.186C70.8669 158.695 70.6026 159.356 70.3055 160.169L69.5617 162.221L65.0504 161.026L66.6849 154.835L65.5833 154.543L66.4103 151.411L67.7636 151.77L67.2725 153.63L72.13 154.917L72.6212 153.057L73.985 153.418L73.1581 156.55ZM68.1327 155.219L66.834 160.137L68.586 160.602L68.9907 159.494C69.3317 158.543 69.6597 157.782 69.9745 157.214C70.2824 156.643 70.5987 156.224 70.9234 155.958L68.1327 155.219Z" fill="#F7F1F3"/>
<path d="M60.7623 151.281C61.2824 151.5 61.7137 151.8 62.0561 152.181C62.3891 152.565 62.6388 152.989 62.8051 153.452C62.9619 153.919 63.0324 154.405 63.0165 154.91C63.0007 155.414 62.8973 155.894 62.7063 156.348C62.5069 156.822 62.2293 157.24 61.8734 157.601C61.5108 157.959 61.106 158.24 60.6589 158.445C60.2051 158.647 59.7241 158.754 59.216 158.768C58.705 158.788 58.1995 158.693 57.6994 158.482C57.186 158.265 56.7642 157.962 56.434 157.571C56.0944 157.184 55.8461 156.756 55.6893 156.289C55.5325 155.822 55.462 155.336 55.4779 154.831C55.4937 154.327 55.5957 153.851 55.7839 153.403C55.9832 152.929 56.2609 152.512 56.6168 152.151C56.9699 151.796 57.37 151.517 57.8171 151.312C58.2614 151.114 58.739 151.005 59.25 150.985C59.7582 150.971 60.2623 151.07 60.7623 151.281ZM61.3061 155.757C61.4353 155.45 61.5136 155.133 61.541 154.806C61.5684 154.48 61.5418 154.17 61.4611 153.876C61.3738 153.58 61.2315 153.311 61.0343 153.071C60.8304 152.827 60.5651 152.637 60.2384 152.499C59.905 152.358 59.5836 152.301 59.2741 152.328C58.9551 152.359 58.6611 152.451 58.3923 152.605C58.1168 152.756 57.8767 152.953 57.6721 153.197C57.458 153.445 57.2892 153.716 57.1656 154.01C57.0364 154.317 56.9615 154.636 56.9407 154.965C56.9133 155.292 56.9433 155.603 57.0306 155.9C57.1113 156.193 57.255 156.458 57.4617 156.695C57.6589 156.935 57.9175 157.123 58.2375 157.258C58.5709 157.399 58.8971 157.454 59.2161 157.423C59.5323 157.399 59.8248 157.311 60.0937 157.157C60.3597 157.009 60.5998 156.812 60.8139 156.564C61.0185 156.32 61.1826 156.051 61.3061 155.757Z" fill="#F7F1F3"/>
<path d="M53.5383 152.443C53.301 152.849 52.9955 153.208 52.6218 153.518C52.2383 153.831 51.8147 154.061 51.3511 154.209C50.8875 154.358 50.3961 154.41 49.8769 154.366C49.3577 154.323 48.8389 154.149 48.3205 153.845C47.7084 153.487 47.2591 153.043 46.9726 152.515C46.6799 151.982 46.5501 151.436 46.5834 150.876L47.9763 150.773C47.9542 151.012 47.9691 151.23 48.0211 151.428C48.0693 151.633 48.1434 151.815 48.2432 151.974C48.3431 152.133 48.4619 152.274 48.5998 152.397C48.7341 152.526 48.8762 152.634 49.0261 152.722C49.3509 152.912 49.6734 153.013 49.9937 153.024C50.3077 153.032 50.608 152.977 50.8945 152.859C51.1711 152.744 51.4285 152.576 51.6667 152.354C51.9012 152.139 52.0952 151.9 52.2485 151.637C52.4201 151.343 52.5393 151.031 52.6063 150.701C52.6696 150.377 52.6771 150.062 52.629 149.757C52.5746 149.448 52.4652 149.162 52.3008 148.897C52.1303 148.63 51.9013 148.412 51.614 148.243C51.4641 148.156 51.297 148.083 51.1127 148.025C50.9284 147.968 50.7406 147.938 50.5495 147.935C50.3522 147.929 50.1545 147.951 49.9566 148.003C49.755 148.062 49.5638 148.159 49.3829 148.297L48.6802 147.067C48.9324 146.879 49.215 146.746 49.5281 146.669C49.8312 146.595 50.146 146.565 50.4726 146.58C50.7928 146.592 51.1136 146.645 51.4348 146.741C51.756 146.837 52.051 146.963 52.3195 147.12C52.7942 147.398 53.1699 147.753 53.4466 148.183C53.7233 148.614 53.9122 149.073 54.0133 149.56C54.1046 150.05 54.1128 150.546 54.0379 151.048C53.9531 151.552 53.7865 152.017 53.5383 152.443Z" fill="#F7F1F3"/>
<path d="M39.2954 146.017L41.2617 147.504L45.1122 142.393L46.2989 143.29L42.4485 148.401L44.4148 149.888L43.6238 150.938L38.5044 147.067L39.2954 146.017Z" fill="#F7F1F3"/>
<path d="M34.6814 143.701L33.7279 142.781L36.9632 135.185L38.073 136.256L37.2563 138.14L39.1945 140.01L41.0352 139.115L42.145 140.186L34.6814 143.701ZM36.7213 139.088L35.3867 142.011L38.2845 140.596L36.7213 139.088Z" fill="#F7F1F3"/>
<path d="M30.08 130.125C30.333 129.92 30.5961 129.79 30.8692 129.737C31.1423 129.683 31.4164 129.694 31.6914 129.769C31.9619 129.839 32.2264 129.965 32.4851 130.147C32.7392 130.323 32.9732 130.544 33.1872 130.808L35.5293 133.707L29.5407 138.563L26.9459 135.353C26.7775 135.144 26.67 134.919 26.6234 134.677C26.5768 134.435 26.5788 134.196 26.6294 133.959C26.6744 133.726 26.7646 133.504 26.9001 133.292C27.0254 133.078 27.1809 132.896 27.3664 132.746C27.6588 132.508 27.9935 132.358 28.3705 132.295C28.7419 132.236 29.1033 132.297 29.4546 132.479C29.2782 132.053 29.2424 131.634 29.3474 131.223C29.4421 130.81 29.6863 130.444 30.08 130.125ZM30.8098 131.478C30.703 131.564 30.6177 131.666 30.5539 131.783C30.48 131.899 30.4316 132.017 30.4086 132.139C30.3855 132.26 30.3885 132.379 30.4174 132.495C30.4407 132.616 30.4933 132.727 30.5753 132.829L32.0229 134.62L33.6001 133.341L32.2003 131.609C32.1138 131.502 32.0145 131.419 31.9023 131.361C31.7856 131.297 31.6661 131.259 31.544 131.246C31.4163 131.237 31.2887 131.252 31.1612 131.29C31.0338 131.329 30.9166 131.391 30.8098 131.478ZM29.5937 136.59L31.1035 135.366L29.8471 133.811C29.6877 133.614 29.486 133.502 29.2418 133.477C28.993 133.445 28.7505 133.525 28.5144 133.717C28.2838 133.904 28.1534 134.117 28.1232 134.356C28.0884 134.589 28.1461 134.799 28.2963 134.985L29.5937 136.59Z" fill="#F7F1F3"/>
<path d="M25.4725 128.004L25.1515 127.487L21.2226 127.17L20.3284 125.73L24.9507 126.115L26.7389 121.441L27.6217 122.862L26.2196 126.655L26.6151 127.292L29.3242 125.604L30.1096 126.869L23.5672 130.946L22.7819 129.681L25.4725 128.004Z" fill="#F7F1F3"/>
<path d="M17.7195 120.749L17.166 119.544L22.9404 113.65L23.5846 115.053L22.1391 116.509L23.2643 118.958L25.3041 118.796L25.9484 120.198L17.7195 120.749ZM21.2963 117.197L18.9905 119.433L22.2037 119.172L21.2963 117.197Z" fill="#F7F1F3"/>
<path d="M15.4771 102.024C15.6327 101.991 15.7846 101.992 15.9326 102.027C16.0791 102.055 16.216 102.107 16.3432 102.184C16.4634 102.262 16.5662 102.362 16.6514 102.485C16.7367 102.607 16.796 102.746 16.8291 102.902C16.8608 103.051 16.8627 103.199 16.8348 103.346C16.8068 103.493 16.7547 103.63 16.6782 103.757C16.5932 103.879 16.4895 103.983 16.3672 104.068C16.2448 104.154 16.1058 104.213 15.9501 104.246C15.8015 104.278 15.654 104.28 15.5075 104.252C15.361 104.224 15.2276 104.171 15.1074 104.093C14.9787 104.009 14.8716 103.906 14.7864 103.783C14.7011 103.661 14.6426 103.525 14.6109 103.376C14.5777 103.22 14.5751 103.069 14.603 102.922C14.631 102.775 14.6874 102.641 14.7724 102.519C14.8504 102.399 14.9505 102.296 15.0729 102.21C15.1938 102.118 15.3285 102.056 15.4771 102.024Z" fill="#F7F1F3"/>
<path d="M13.1913 88.0855L13.2006 87.4768L10.0681 85.08L10.0941 83.3843L13.7735 86.2134L17.802 83.2527L17.7764 84.9267L14.5483 87.3561L14.5368 88.1062L17.727 88.1552L17.7041 89.6445L10 89.526L10.0228 88.0368L13.1913 88.0855Z" fill="#F7F1F3"/>
<path d="M17.9479 80.8443L10.3119 79.813L10.7484 76.5699C10.7957 76.218 10.9145 75.9049 11.1047 75.6307C11.2887 75.3484 11.5171 75.116 11.7899 74.9334C12.0555 74.7499 12.3506 74.6179 12.6754 74.5374C12.993 74.456 13.3059 74.4361 13.6142 74.4778C13.9368 74.5213 14.2446 74.6214 14.5374 74.778C14.8231 74.9336 15.0702 75.1315 15.2788 75.3718C15.4874 75.612 15.6435 75.8891 15.7473 76.2029C15.8511 76.5168 15.8793 76.8497 15.8319 77.2017L15.5883 79.0117L18.148 79.3574L17.9479 80.8443ZM14.287 78.836L14.519 77.1121C14.5557 76.8391 14.475 76.5979 14.2769 76.3883C14.0798 76.1715 13.7912 76.0375 13.4112 75.9861C13.2176 75.96 13.0417 75.9655 12.8834 76.0026C12.7179 76.0388 12.5751 76.0963 12.455 76.1751C12.3349 76.254 12.241 76.3547 12.1734 76.4772C12.0996 76.5915 12.054 76.7134 12.0366 76.8427L11.8134 78.5019L14.287 78.836Z" fill="#F7F1F3"/>
<path d="M19.3992 72.1057C19.38 72.1831 19.352 72.2657 19.3152 72.3536C19.2855 72.4433 19.2478 72.5347 19.2023 72.628C19.1567 72.7212 19.1041 72.8126 19.0445 72.9023C18.9867 72.985 18.9245 73.0553 18.8578 73.1134L17.7046 72.6239C17.766 72.557 17.8414 72.4638 17.9308 72.3442C18.0149 72.2158 18.0753 72.0778 18.112 71.9301C18.1628 71.7261 18.1503 71.5363 18.0747 71.3606C17.9939 71.1761 17.8165 70.9899 17.5426 70.802L11.3611 72.1833L11.752 70.6115L16.2416 69.7826L12.6335 67.0669L13.014 65.5373L18.0444 69.594C18.3429 69.8328 18.5931 70.0558 18.7951 70.2631C18.99 70.4686 19.1446 70.6715 19.2588 70.8718C19.3677 71.0633 19.4345 71.2593 19.4593 71.4597C19.477 71.6583 19.457 71.8736 19.3992 72.1057Z" fill="#F7F1F3"/>
<path d="M16.5647 59.237L15.4649 62.2605L21.4705 64.4529L20.9615 65.8523L13.7221 63.2095L15.331 58.7866L16.5647 59.237Z" fill="#F7F1F3"/>
<path d="M19.6917 54.9796C20.5441 55.4926 21.241 55.9607 21.7824 56.3838C22.3239 56.807 22.7295 57.2191 22.9991 57.6203C23.2623 58.0183 23.396 58.4166 23.4004 58.8152C23.4047 59.2139 23.2926 59.6437 23.0642 60.1046L21.8203 59.5829C21.9103 59.3525 21.9501 59.1336 21.9398 58.9262C21.9328 58.7123 21.8254 58.4808 21.6176 58.2318C21.4131 57.9763 21.0855 57.6839 20.6349 57.3545C20.1778 57.0219 19.5554 56.6152 18.7679 56.1344L16.906 55.0018L18.9815 50.8148L25.8825 54.2479L25.2212 55.5819L19.4963 52.7339L18.6854 54.3697L19.6917 54.9796Z" fill="#F7F1F3"/>
<path d="M29.0929 48.9792C28.7775 49.448 28.4004 49.814 27.9616 50.0771C27.5209 50.3301 27.0575 50.4936 26.5715 50.5675C26.0836 50.6313 25.5941 50.6067 25.1031 50.4937C24.6121 50.3806 24.1626 50.1863 23.7546 49.9109C23.3287 49.6233 22.9733 49.2697 22.6885 48.8501C22.4077 48.4245 22.2104 47.9722 22.0964 47.4932C21.9865 47.0082 21.974 46.5146 22.0588 46.0125C22.1376 45.5063 22.3287 45.0279 22.6319 44.5771C22.9433 44.1143 23.3223 43.7585 23.7691 43.5095C24.2138 43.2504 24.6802 43.089 25.1681 43.0251C25.6561 42.9613 26.1455 42.9859 26.6366 43.0989C27.1276 43.212 27.5741 43.4042 27.9761 43.6756C28.402 43.9633 28.7574 44.3169 29.0422 44.7364C29.321 45.152 29.5174 45.5992 29.6313 46.0782C29.7393 46.5532 29.7538 47.0438 29.675 47.5499C29.5902 48.052 29.3962 48.5285 29.0929 48.9792ZM24.6038 48.6488C24.8798 48.8351 25.175 48.9733 25.4896 49.0634C25.8042 49.1534 26.113 49.1872 26.4161 49.1646C26.7233 49.136 27.0137 49.048 27.2873 48.9007C27.565 48.7473 27.8029 48.5234 28.0011 48.2289C28.2033 47.9284 28.3212 47.6234 28.3549 47.314C28.3866 46.9946 28.353 46.6878 28.2542 46.3939C28.1594 46.0939 28.0123 45.8197 27.8129 45.5714C27.6116 45.3131 27.3789 45.0948 27.1149 44.9166C26.839 44.7302 26.5417 44.595 26.2231 44.511C25.9085 44.4209 25.5976 44.3902 25.2905 44.4188C24.9874 44.4414 24.7 44.5314 24.4283 44.6888C24.1546 44.8362 23.9208 45.0541 23.7267 45.3426C23.5245 45.6431 23.4075 45.953 23.3758 46.2725C23.3381 46.5879 23.3686 46.8926 23.4675 47.1866C23.5603 47.4765 23.7074 47.7507 23.9087 48.009C24.1081 48.2573 24.3398 48.4705 24.6038 48.6488Z" fill="#F7F1F3"/>
<path d="M29.4244 41.532C29.0721 41.2198 28.7804 40.8501 28.5492 40.4227C28.3174 39.9851 28.1739 39.5241 28.1186 39.0397C28.0633 38.5553 28.1075 38.0623 28.251 37.5605C28.3946 37.0588 28.6653 36.5826 29.0631 36.132C29.5328 35.6 30.0544 35.2445 30.6277 35.0655C31.2058 34.8811 31.7657 34.8595 32.3074 35.0008L32.1387 36.3898C31.9091 36.3218 31.6921 36.294 31.4878 36.3066C31.2782 36.3143 31.0857 36.3518 30.9104 36.4191C30.7352 36.4863 30.5741 36.5758 30.4271 36.6875C30.2748 36.7944 30.1411 36.913 30.0261 37.0433C29.7768 37.3256 29.6157 37.6231 29.5425 37.9356C29.4742 38.2428 29.4698 38.5485 29.5295 38.8529C29.5885 39.1471 29.7034 39.4327 29.8741 39.7098C30.0394 39.982 30.2358 40.219 30.4634 40.4207C30.7181 40.6464 31.0007 40.8241 31.311 40.954C31.6159 41.079 31.9225 41.1474 32.2308 41.1593C32.5438 41.1658 32.8456 41.1139 33.1361 41.0036C33.4314 40.8879 33.6893 40.7052 33.9098 40.4554C34.0248 40.3251 34.1284 40.175 34.2205 40.005C34.3126 39.8351 34.3786 39.6565 34.4184 39.4692C34.4629 39.2765 34.479 39.0778 34.4665 38.8732C34.4485 38.6638 34.3897 38.4568 34.2901 38.2525L35.6309 37.8004C35.7662 38.0848 35.8411 38.3882 35.8557 38.7108C35.8697 39.0232 35.8378 39.3383 35.7599 39.6563C35.6867 39.9689 35.5721 40.2737 35.416 40.5709C35.26 40.868 35.0789 41.1333 34.8728 41.3667C34.5085 41.7793 34.0887 42.0798 33.6133 42.2682C33.1379 42.4566 32.6518 42.5532 32.1549 42.558C31.6574 42.5526 31.1703 42.4645 30.6934 42.2935C30.2159 42.1123 29.7929 41.8585 29.4244 41.532Z" fill="#F7F1F3"/>
<path d="M39.3235 36.6859C39.2642 36.7391 39.1947 36.7917 39.115 36.8438C39.0401 36.9012 38.9577 36.9557 38.8678 37.0072C38.7779 37.0587 38.6831 37.1048 38.5835 37.1455C38.4893 37.1814 38.3984 37.2046 38.3107 37.2151L37.6309 36.1613C37.7191 36.1405 37.8338 36.1058 37.9748 36.0571C38.1163 35.9982 38.2437 35.918 38.3569 35.8164C38.5132 35.6762 38.6093 35.5121 38.6453 35.3242C38.6818 35.1261 38.6394 34.8722 38.5181 34.5627L32.6289 32.2281L33.8335 31.1474L38.013 32.9873L36.5498 28.7105L37.722 27.6588L39.6104 33.8454C39.7235 34.2109 39.8055 34.5362 39.8565 34.8213C39.9026 35.1011 39.9167 35.3559 39.899 35.5859C39.8817 35.8057 39.8272 36.0054 39.7353 36.1851C39.6387 36.3594 39.5014 36.5263 39.3235 36.6859Z" fill="#F7F1F3"/>
<path d="M45.2449 23.7003L43.236 25.1286L46.9354 30.3505L45.723 31.2126L42.0236 25.9906L40.0147 27.4189L39.2547 26.3462L44.485 22.6275L45.2449 23.7003Z" fill="#F7F1F3"/>
<path d="M53.4836 26.2863C52.9862 26.5533 52.4822 26.7005 51.9715 26.7279C51.4638 26.7456 50.9779 26.6734 50.5137 26.5114C50.0525 26.3397 49.6311 26.0889 49.2496 25.7593C48.868 25.4296 48.5611 25.0476 48.3287 24.6131C48.0861 24.1596 47.9367 23.6807 47.8803 23.1764C47.8304 22.6687 47.8667 22.1764 47.9892 21.6996C48.1181 21.2192 48.337 20.7769 48.646 20.3726C48.9517 19.9618 49.3436 19.6281 49.8219 19.3714C50.3129 19.1078 50.814 18.9704 51.3251 18.9591C51.8391 18.9381 52.3268 19.0134 52.788 19.1852C53.2492 19.357 53.6706 19.6077 54.0521 19.9374C54.4337 20.267 54.7389 20.6459 54.9679 21.0739C55.2105 21.5275 55.3599 22.0064 55.4162 22.5107C55.4691 23.0085 55.4343 23.4959 55.3118 23.9728C55.1859 24.4433 54.9702 24.8839 54.6645 25.2946C54.3555 25.699 53.9619 26.0295 53.4836 26.2863ZM49.6679 23.8943C49.8251 24.1881 50.0218 24.4485 50.258 24.6753C50.4942 24.902 50.7516 25.0763 51.0301 25.1981C51.3151 25.3165 51.6129 25.3746 51.9236 25.3723C52.2406 25.3665 52.5554 25.2798 52.8678 25.1121C53.1867 24.9409 53.4331 24.7264 53.6071 24.4685C53.784 24.2009 53.8973 23.9139 53.9469 23.6077C54.0029 23.2981 54.0006 22.9869 53.94 22.6741C53.8824 22.3514 53.7783 22.0496 53.628 21.7685C53.4708 21.4746 53.2709 21.216 53.0283 20.9926C52.7921 20.7659 52.5316 20.5933 52.2466 20.4749C51.9681 20.3531 51.672 20.2982 51.3583 20.3104C51.0477 20.3127 50.7393 20.396 50.4332 20.5603C50.1143 20.7314 49.8664 20.9509 49.6895 21.2185C49.5091 21.4798 49.3941 21.7635 49.3445 22.0697C49.2915 22.3696 49.2938 22.6808 49.3514 23.0034C49.4121 23.3162 49.5175 23.6132 49.6679 23.8943Z" fill="#F7F1F3"/>
<path d="M59.3936 14.9939L60.7704 14.4612L63.5463 21.6617L62.1695 22.1944L61.0865 19.3852C61.0009 19.4649 60.9106 19.5426 60.8157 19.6182C60.7207 19.6938 60.6143 19.7699 60.4965 19.8465C60.3761 19.9164 60.2409 19.9882 60.0909 20.0617C59.9383 20.1286 59.7641 20.1998 59.5684 20.2756C59.1432 20.4401 58.762 20.5176 58.4249 20.5082C58.0852 20.492 57.7812 20.4076 57.513 20.255C57.2515 20.0998 57.0229 19.8891 56.8272 19.6229C56.6357 19.3474 56.4722 19.0338 56.3366 18.6823L55.4961 16.5018L56.8728 15.9691L57.5609 17.7541C57.6678 18.0313 57.7806 18.2635 57.8993 18.4506C58.0247 18.6352 58.1628 18.7721 58.3136 18.8614C58.4711 18.9481 58.6459 18.9892 58.8381 18.9848C59.0303 18.9803 59.2512 18.9298 59.5009 18.8332C59.7777 18.7261 60.0081 18.6098 60.1923 18.4841C60.374 18.3517 60.5078 18.2261 60.5939 18.1073L59.3936 14.9939Z" fill="#F7F1F3"/>
<path d="M70.6472 11.6359L72.4748 19.1345L71.0305 19.4878L70.2506 16.2877L66.8559 17.118L67.6358 20.3181L66.181 20.674L64.3534 13.1754L65.8082 12.8195L66.547 15.8507L69.9417 15.0203L69.2029 11.9892L70.6472 11.6359Z" fill="#F7F1F3"/>
<path d="M76.5106 10.6481L77.8267 10.5043L81.5748 17.8595L80.0428 18.0269L79.1226 16.1917L76.4471 16.484L75.9541 18.4735L74.4222 18.6408L76.5106 10.6481ZM78.7388 15.1728L77.3533 12.273L76.5811 15.4085L78.7388 15.1728Z" fill="#F7F1F3"/>
<path d="M88.0183 17.7518L88.0737 14.893L86.8476 14.8692L85.0562 17.6941L83.407 17.662L85.3539 14.6553C84.9162 14.4655 84.5674 14.1688 84.3075 13.765C84.0475 13.3613 83.9226 12.8985 83.9328 12.3768C83.9391 12.0507 84.0065 11.7439 84.1351 11.4564C84.2637 11.169 84.4387 10.915 84.66 10.6946C84.8814 10.4742 85.1416 10.3016 85.4407 10.177C85.7471 10.0525 86.0775 9.99365 86.4319 10.0005L89.6544 10.0632L89.5048 17.7807L88.0183 17.7518ZM88.143 11.3169L86.5698 11.2863C86.4251 11.2835 86.2871 11.3098 86.1558 11.3653C86.0246 11.4135 85.9038 11.4872 85.7933 11.5866C85.6902 11.6788 85.6047 11.7967 85.5368 11.9404C85.4763 12.077 85.4443 12.2322 85.4409 12.4061C85.4342 12.7539 85.53 13.0349 85.7285 13.249C85.9342 13.4632 86.189 13.5733 86.4928 13.5792L88.0986 13.6104L88.143 11.3169Z" fill="#F7F1F3"/>
<path d="M96.3662 16.9349L96.6314 16.9922C96.838 17.0295 97.0313 17.0083 97.2113 16.9286C97.3913 16.8489 97.5743 16.6697 97.7602 16.3911C97.9461 16.1125 98.1422 15.7174 98.3487 15.206C98.5567 14.6874 98.7904 14.0151 99.0499 13.1888L99.699 11.1048L104.26 12.0915L102.911 18.3506L104.025 18.5916L103.342 21.7584L101.974 21.4623L102.379 19.5814L97.4681 18.519L97.0626 20.3999L95.6836 20.1016L96.3662 16.9349ZM101.447 18.034L102.519 13.0607L100.748 12.6775L100.394 13.8022C100.097 14.7686 99.8044 15.5431 99.516 16.1258C99.2346 16.7101 98.9379 17.1427 98.6256 17.4236L101.447 18.034Z" fill="#F7F1F3"/>
<path d="M109.218 21.666C108.688 21.4703 108.244 21.1902 107.885 20.8256C107.535 20.4568 107.266 20.0447 107.079 19.5893C106.902 19.1296 106.809 18.6474 106.802 18.1427C106.795 17.638 106.877 17.1544 107.047 16.6921C107.225 16.2093 107.484 15.7795 107.823 15.4028C108.169 15.0285 108.561 14.7291 108.998 14.5046C109.442 14.2825 109.918 14.1531 110.425 14.1165C110.935 14.0731 111.444 14.1455 111.953 14.3336C112.476 14.5268 112.911 14.8112 113.258 15.1869C113.615 15.5583 113.882 15.9738 114.06 16.4335C114.238 16.8932 114.33 17.3753 114.337 17.88C114.344 18.3848 114.263 18.8649 114.095 19.3205C113.918 19.8033 113.659 20.233 113.32 20.6098C112.983 20.9797 112.596 21.277 112.159 21.5015C111.724 21.7193 111.251 21.8499 110.742 21.8933C110.235 21.93 109.727 21.8542 109.218 21.666ZM108.473 17.2189C108.358 17.5317 108.294 17.8519 108.281 18.1794C108.268 18.5069 108.309 18.8155 108.403 19.1051C108.503 19.3972 108.658 19.6589 108.865 19.8903C109.08 20.1241 109.354 20.3025 109.686 20.4254C110.026 20.5509 110.349 20.5933 110.657 20.5526C110.975 20.5077 111.264 20.4022 111.526 20.2363C111.794 20.0728 112.025 19.8646 112.218 19.6116C112.421 19.3544 112.578 19.0762 112.688 18.777C112.803 18.4642 112.864 18.1428 112.869 17.8128C112.882 17.4852 112.838 17.1754 112.738 16.8833C112.644 16.5937 112.488 16.3353 112.271 16.1083C112.063 15.877 111.796 15.7011 111.471 15.5807C111.131 15.4552 110.803 15.415 110.486 15.4599C110.171 15.4981 109.883 15.6001 109.621 15.7661C109.362 15.9252 109.131 16.1334 108.928 16.3907C108.735 16.6437 108.583 16.9197 108.473 17.2189Z" fill="#F7F1F3"/>
<path d="M116.247 20.0864C116.466 19.6695 116.755 19.2978 117.115 18.9714C117.484 18.642 117.897 18.3928 118.354 18.2241C118.81 18.0553 119.299 17.9812 119.82 18.0018C120.34 18.0224 120.866 18.1728 121.398 18.453C122.025 18.7838 122.493 19.2069 122.803 19.7224C123.119 20.2412 123.273 20.781 123.265 21.3417L121.878 21.5072C121.889 21.2676 121.865 21.0498 121.804 20.854C121.747 20.6518 121.665 20.4734 121.558 20.3188C121.451 20.1642 121.326 20.0287 121.183 19.9122C121.043 19.7894 120.896 19.6874 120.742 19.6064C120.41 19.4309 120.083 19.3446 119.762 19.3477C119.448 19.3541 119.151 19.4224 118.87 19.5527C118.599 19.68 118.349 19.8596 118.121 20.0915C117.896 20.317 117.713 20.5644 117.571 20.8338C117.413 21.1352 117.308 21.4523 117.255 21.7852C117.207 22.1116 117.213 22.4262 117.275 22.729C117.343 23.0352 117.465 23.3165 117.641 23.5731C117.823 23.833 118.061 24.0406 118.356 24.1959C118.509 24.2769 118.68 24.3421 118.866 24.3913C119.053 24.4406 119.242 24.4624 119.433 24.4567C119.63 24.4543 119.827 24.4227 120.022 24.362C120.221 24.2948 120.408 24.1885 120.582 24.043L121.339 25.2405C121.095 25.4397 120.819 25.5846 120.509 25.6754C120.21 25.7632 119.897 25.8069 119.57 25.8066C119.249 25.8096 118.927 25.7705 118.601 25.6891C118.276 25.6078 117.976 25.4945 117.701 25.3493C117.214 25.0928 116.823 24.7556 116.528 24.3377C116.232 23.9198 116.023 23.4696 115.9 22.9872C115.787 22.5018 115.757 22.0068 115.81 21.5021C115.872 20.9944 116.018 20.5225 116.247 20.0864Z" fill="#F7F1F3"/>
<path d="M130.717 25.7991L128.688 24.4004L125.065 29.6762L123.84 28.832L127.463 23.5563L125.433 22.1576L126.177 21.0738L131.461 24.7153L130.717 25.7991Z" fill="#F7F1F3"/>
<path d="M135.678 28.067L136.671 28.9447L133.77 36.6744L132.614 35.6529L133.348 33.7353L131.33 31.9513L129.53 32.9265L128.375 31.905L135.678 28.067ZM133.841 32.7648L135.047 29.7856L132.214 31.3261L133.841 32.7648Z" fill="#F7F1F3"/>
<path d="M140.868 41.4077C140.624 41.6238 140.366 41.7646 140.096 41.8301C139.825 41.8956 139.551 41.8968 139.273 41.8335C139 41.7756 138.73 41.6615 138.464 41.4911C138.202 41.3261 137.959 41.116 137.734 40.8609L135.267 38.0677L141.039 32.9538L143.771 36.0484C143.948 36.2493 144.066 36.4695 144.123 36.7092C144.18 36.9489 144.188 37.1882 144.148 37.4271C144.113 37.6611 144.033 37.8872 143.907 38.1054C143.791 38.3242 143.643 38.5128 143.464 38.6713C143.183 38.921 142.855 39.0857 142.481 39.1654C142.112 39.2403 141.749 39.1949 141.39 39.0291C141.585 39.4467 141.639 39.8633 141.552 40.279C141.475 40.6953 141.247 41.0716 140.868 41.4077ZM140.08 40.0885C140.182 39.9972 140.263 39.8918 140.322 39.7722C140.391 39.6532 140.434 39.5326 140.452 39.4104C140.469 39.2883 140.461 39.1697 140.427 39.0547C140.399 38.9348 140.341 38.826 140.255 38.7283L138.731 37.0019L137.211 38.3488L138.685 40.0182C138.776 40.1213 138.879 40.1995 138.993 40.2528C139.113 40.3115 139.234 40.3446 139.356 40.3521C139.484 40.3548 139.611 40.3344 139.737 40.2908C139.862 40.2471 139.977 40.1797 140.08 40.0885ZM141.072 34.9276L139.617 36.2168L140.94 37.7152C141.108 37.9052 141.314 38.0078 141.559 38.0228C141.809 38.0433 142.048 37.9527 142.275 37.751C142.497 37.5542 142.618 37.3357 142.638 37.0956C142.663 36.8609 142.596 36.654 142.438 36.4748L141.072 34.9276Z" fill="#F7F1F3"/>
<path d="M145.582 43.3248L145.925 43.8272L149.864 43.9712L150.821 45.3706L146.186 45.1899L144.604 49.9379L143.66 48.5564L144.895 44.7054L144.472 44.0864L141.839 45.8922L140.999 44.6633L147.357 40.3024L148.197 41.5313L145.582 43.3248Z" fill="#F7F1F3"/>
<path d="M153.677 50.2656L154.283 51.4447L148.775 57.5889L148.07 56.2166L149.449 54.6975L148.217 52.3006L146.186 52.5536L145.48 51.1812L153.677 50.2656ZM150.261 53.9729L152.465 51.6368L149.267 52.04L150.261 53.9729Z" fill="#F7F1F3"/>
<path d="M156.795 69.0294C156.641 69.0691 156.489 69.0746 156.34 69.0457C156.192 69.0238 156.053 68.9773 155.923 68.9061C155.799 68.8331 155.693 68.7372 155.602 68.6183C155.512 68.4993 155.447 68.3627 155.407 68.2082C155.37 68.0608 155.362 67.9132 155.383 67.7654C155.405 67.6176 155.452 67.4784 155.523 67.3478C155.602 67.2225 155.702 67.1146 155.82 67.0241C155.939 66.9337 156.076 66.8686 156.23 66.8289C156.377 66.791 156.524 66.7829 156.672 66.8048C156.819 66.8266 156.955 66.8741 157.078 66.947C157.21 67.0253 157.321 67.1238 157.412 67.2427C157.502 67.3617 157.566 67.4948 157.604 67.6422C157.644 67.7967 157.653 67.9478 157.631 68.0956C157.609 68.2434 157.558 68.38 157.478 68.5053C157.405 68.6289 157.31 68.7359 157.191 68.8263C157.074 68.9238 156.942 68.9915 156.795 69.0294Z" fill="#F7F1F3"/>
<path d="M107.126 61.9875H108.567L107.436 61.0951C102.572 57.2558 96.7243 54.8642 90.5636 54.1939C84.4029 53.5237 78.178 54.6019 72.6017 57.3052C67.0254 60.0085 62.3231 64.2276 59.0333 69.4793C55.7436 74.7308 53.9993 80.8025 54 86.9992C53.9883 91.3348 54.8366 95.6297 56.4957 99.6352C58.1545 103.64 60.5908 107.276 63.6637 110.333C63.8693 110.544 63.9835 110.828 63.9818 111.123C63.9801 111.419 63.8617 111.703 63.6524 111.912C63.443 112.121 63.1595 112.24 62.8634 112.241C62.5682 112.243 62.2841 112.129 62.0725 111.923C55.6697 105.519 51.9772 96.8958 51.7608 87.8424C51.5444 78.7879 54.8215 69.9975 60.9124 63.2944C67.0033 56.5913 75.4406 52.4898 84.4744 51.8408C93.5082 51.1917 102.445 54.0447 109.432 59.8082L110.25 60.4832V59.4225V53.9226C110.254 53.6269 110.373 53.3444 110.583 53.1362C110.794 52.9276 111.079 52.8106 111.375 52.8106C111.672 52.8106 111.956 52.9276 112.167 53.1362C112.377 53.3444 112.497 53.6269 112.5 53.9226V63.1124C112.5 63.4108 112.382 63.697 112.171 63.908C111.96 64.119 111.673 64.2375 111.375 64.2375H102.185C101.89 64.234 101.607 64.1143 101.399 63.9042C101.19 63.6935 101.073 63.409 101.073 63.1125C101.073 62.816 101.19 62.5315 101.399 62.3209C101.607 62.1107 101.89 61.991 102.185 61.9875H107.126Z" fill="white" stroke="#F8437E"/>
<path d="M72.5948 116.7L72.5785 116.693C71.6422 116.237 70.7158 115.731 69.8252 115.188L69.825 115.187C69.5703 115.032 69.2643 114.984 68.9743 115.054C68.6844 115.124 68.4341 115.307 68.2787 115.562C68.1232 115.816 68.0753 116.122 68.1454 116.412C68.2156 116.702 68.398 116.952 68.6527 117.108L68.6527 117.108C69.6046 117.689 70.595 118.23 71.5957 118.716L72.5948 116.7ZM72.5948 116.7C72.7213 116.764 72.8346 116.852 72.9288 116.958C73.0268 117.068 73.1021 117.197 73.1504 117.337C73.1987 117.476 73.2191 117.624 73.2103 117.771C73.2015 117.919 73.1637 118.063 73.0992 118.196C73.0346 118.329 72.9445 118.448 72.834 118.546C72.7235 118.644 72.5948 118.719 72.4552 118.767C72.3156 118.816 72.1678 118.836 72.0203 118.827C71.8729 118.818 71.7287 118.781 71.5958 118.716L72.5948 116.7Z" fill="white" stroke="#F8437E"/>
<path d="M116.707 72.6093L116.707 72.6094C116.772 72.7423 116.862 72.8613 116.972 72.9595C117.082 73.0577 117.211 73.1332 117.351 73.1817C117.49 73.2301 117.638 73.2507 117.785 73.242C117.933 73.2334 118.077 73.1958 118.21 73.1314C118.343 73.067 118.462 72.9771 118.56 72.8667C118.659 72.7563 118.734 72.6276 118.782 72.4881C118.831 72.3485 118.851 72.2008 118.843 72.0533C118.834 71.9058 118.797 71.7615 118.732 71.6285L118.732 71.6283C118.25 70.6312 117.71 69.6408 117.129 68.6844L116.707 72.6093ZM116.707 72.6093C116.255 71.6761 115.75 70.7492 115.206 69.8542L115.206 69.8541M116.707 72.6093L115.206 69.8541M115.206 69.8541C115.051 69.5991 115.003 69.293 115.074 69.003C115.144 68.713 115.327 68.463 115.582 68.3079C115.837 68.1528 116.143 68.1053 116.433 68.1759C116.577 68.2109 116.712 68.2738 116.832 68.3611C116.951 68.4483 117.052 68.5581 117.128 68.6843L115.206 69.8541Z" fill="white" stroke="#F8437E"/>
<path d="M90.9143 119.769L90.9467 119.765C91.2319 119.74 91.5163 119.825 91.7416 120.003C91.9756 120.188 92.1267 120.458 92.1616 120.754C92.1966 121.05 92.1125 121.348 91.928 121.582C91.7435 121.816 91.4737 121.968 91.1777 122.003C90.0666 122.134 88.9422 122.213 87.8345 122.239L87.8253 122.239L87.8192 122.24L87.8108 122.24C87.5191 122.234 87.2409 122.116 87.0349 121.909C86.828 121.702 86.7103 121.421 86.7069 121.128C86.7035 120.835 86.8146 120.552 87.0167 120.34C87.218 120.128 87.4937 120.003 87.7855 119.991C88.8214 119.966 89.8737 119.892 90.9143 119.769Z" fill="white" stroke="#F8437E"/>
<path d="M81.5564 119.55L81.5246 119.545C80.4983 119.373 79.4662 119.15 78.4571 118.88C78.1688 118.803 77.8617 118.843 77.6034 118.993C77.345 119.142 77.1565 119.388 77.0794 119.676C77.0024 119.965 77.043 120.272 77.1924 120.53C77.3418 120.789 77.5877 120.977 77.876 121.054L81.5564 119.55ZM81.5564 119.55C81.6907 119.577 81.8191 119.627 81.9353 119.7C82.0606 119.778 82.1693 119.88 82.2552 120C82.341 120.121 82.4024 120.257 82.4357 120.4C82.469 120.544 82.4736 120.693 82.4493 120.839C82.425 120.985 82.3722 121.124 82.294 121.25C82.2158 121.375 82.1136 121.484 81.9934 121.57C81.8732 121.655 81.7372 121.717 81.5933 121.75C81.4494 121.783 81.3003 121.788 81.1546 121.764C80.0571 121.581 78.954 121.342 77.8761 121.054L81.5564 119.55Z" fill="white" stroke="#F8437E"/>
<path d="M119.99 87.8135L119.99 87.8137C119.963 88.8565 119.887 89.9098 119.763 90.9459C119.728 91.2422 119.812 91.5404 119.996 91.775C120.18 92.009 120.45 92.1606 120.745 92.1966C120.791 92.2017 120.837 92.2043 120.883 92.2044C121.158 92.2038 121.423 92.1027 121.628 91.9202C121.834 91.7376 121.965 91.486 121.998 91.2129L119.99 87.8135ZM119.99 87.8135C119.997 87.5152 120.123 87.2321 120.339 87.0263C120.555 86.8206 120.844 86.7091 121.142 86.7164C121.29 86.7201 121.435 86.7528 121.57 86.8127C121.705 86.8726 121.827 86.9586 121.929 87.0657C122.031 87.1727 122.11 87.2988 122.164 87.4367C122.217 87.5746 122.242 87.7215 122.238 87.8693L122.238 87.8696M119.99 87.8135L122.238 87.8696M122.238 87.8696C122.211 88.9826 122.129 90.1072 121.998 91.2129L122.238 87.8696Z" fill="white" stroke="#F8437E"/>
<path d="M112.433 108.031L112.433 108.031C112.336 108.145 112.263 108.276 112.218 108.418C112.173 108.56 112.156 108.71 112.169 108.858C112.182 109.006 112.225 109.151 112.294 109.282C112.363 109.414 112.458 109.531 112.572 109.626C112.687 109.721 112.819 109.792 112.962 109.836C113.104 109.879 113.254 109.894 113.402 109.879C113.55 109.864 113.694 109.82 113.825 109.749C113.956 109.678 114.072 109.582 114.165 109.466L114.169 109.46L114.169 109.46C114.88 108.603 115.558 107.701 116.184 106.779L116.184 106.779C116.267 106.657 116.325 106.52 116.355 106.375C116.385 106.231 116.386 106.082 116.358 105.936C116.331 105.791 116.275 105.653 116.194 105.53C116.112 105.406 116.008 105.3 115.886 105.217C115.639 105.05 115.336 104.987 115.043 105.043C114.75 105.099 114.491 105.269 114.323 105.516L112.433 108.031ZM112.433 108.031L112.437 108.027M112.433 108.031L112.437 108.027M112.437 108.027C113.102 107.223 113.736 106.378 114.323 105.516L112.437 108.027Z" fill="white" stroke="#F8437E"/>
<path d="M119.05 79.1163C119.247 79.9207 119.415 80.7385 119.551 81.5557L119.551 81.5559C119.594 81.8185 119.729 82.0572 119.932 82.2295C120.135 82.4016 120.392 82.4964 120.658 82.497C120.721 82.4968 120.783 82.4916 120.844 82.4814C120.99 82.4572 121.129 82.4046 121.255 82.3265C121.38 82.2484 121.489 82.1463 121.575 82.0261C121.661 81.906 121.722 81.77 121.756 81.6261C121.789 81.4822 121.794 81.3331 121.77 81.1873L121.769 81.187C121.587 80.0858 121.349 78.9823 121.064 77.9086L119.05 79.1163ZM119.05 79.1163H119.057L118.889 78.4876C118.813 78.1993 118.853 77.8923 119.003 77.6341C119.153 77.376 119.399 77.1878 119.687 77.111C119.975 77.0342 120.282 77.0751 120.54 77.2247C120.799 77.3743 120.987 77.6202 121.064 77.9084L119.05 79.1163Z" fill="white" stroke="#F8437E"/>
<path d="M106.75 116.205L106.75 116.205C107.668 115.583 108.57 114.907 109.432 114.194L106.75 116.205ZM106.75 116.205C106.627 116.288 106.49 116.346 106.345 116.376C106.201 116.406 106.051 116.407 105.906 116.379C105.761 116.351 105.623 116.295 105.5 116.213C105.376 116.132 105.27 116.028 105.187 115.905C105.105 115.783 105.047 115.646 105.017 115.501C104.987 115.356 104.986 115.207 105.014 115.062C105.042 114.917 105.098 114.779 105.179 114.655C105.26 114.532 105.365 114.426 105.487 114.343L106.75 116.205ZM105.487 114.343C106.347 113.76 107.192 113.127 107.998 112.46L105.487 114.343ZM107.999 112.459C108.229 112.269 108.525 112.178 108.822 112.207C109.119 112.235 109.393 112.38 109.583 112.61C109.773 112.84 109.864 113.136 109.836 113.433C109.807 113.73 109.662 114.004 109.432 114.194L107.999 112.459Z" fill="white" stroke="#F8437E"/>
<path d="M117.33 100.024L117.33 100.024L117.333 100.015C117.745 99.0541 118.114 98.0654 118.43 97.075C118.521 96.791 118.721 96.5547 118.986 96.4178C119.251 96.2809 119.559 96.2547 119.844 96.345L119.995 95.8686L119.843 96.3449C119.984 96.3897 120.114 96.4618 120.227 96.5571C120.34 96.6524 120.433 96.769 120.501 96.9002C120.569 97.0314 120.61 97.1747 120.622 97.3219C120.634 97.469 120.618 97.6172 120.573 97.7578L120.573 97.7583C120.236 98.8165 119.841 99.8747 119.4 100.902L119.4 100.902L119.397 100.91C119.34 101.048 119.257 101.174 119.151 101.28C119.046 101.386 118.92 101.469 118.782 101.526C118.644 101.583 118.496 101.611 118.346 101.61C118.197 101.609 118.049 101.578 117.912 101.519C117.774 101.46 117.65 101.375 117.546 101.267C117.443 101.16 117.361 101.033 117.307 100.894C117.253 100.754 117.227 100.606 117.231 100.456C117.235 100.307 117.268 100.16 117.33 100.024Z" fill="white" stroke="#F8437E"/>
<path d="M99.9844 117.347L99.9843 117.346C100.259 117.229 100.568 117.226 100.845 117.336C101.122 117.447 101.344 117.664 101.461 117.938C101.579 118.213 101.582 118.522 101.471 118.799C101.361 119.077 101.144 119.298 100.87 119.416C99.8524 119.851 98.7946 120.245 97.7266 120.585L97.7266 120.585C97.5859 120.63 97.4377 120.647 97.2905 120.634C97.1433 120.622 97 120.581 96.8687 120.513C96.7375 120.445 96.6209 120.352 96.5256 120.239C96.4303 120.126 96.3581 119.996 96.3133 119.855C96.2684 119.714 96.2517 119.566 96.2641 119.419C96.2765 119.272 96.3178 119.128 96.3856 118.997C96.4534 118.866 96.5463 118.749 96.6592 118.654C96.772 118.559 96.9026 118.487 97.0433 118.442L97.0434 118.442C98.043 118.123 99.0324 117.755 99.9844 117.347Z" fill="white" stroke="#F8437E"/>
<path d="M68.6806 78.7296L68.681 78.7296C71.1805 79.3197 72.7574 81.2636 72.7574 83.6802C72.7574 85.2364 72.1042 86.4642 71.1158 87.5289C70.1149 88.6071 68.7977 89.4895 67.5041 90.3532L67.504 90.3533L67.4759 90.372C66.551 90.9899 65.5614 91.6511 64.8504 92.3247L63.9396 93.1876H65.1943H71.6297C71.9254 93.1911 72.2079 93.3108 72.416 93.5209C72.6246 93.7316 72.7417 94.0161 72.7417 94.3126C72.7417 94.6091 72.6246 94.8936 72.416 95.1043C72.2079 95.3144 71.9254 95.4341 71.6297 95.4376H62.6251C62.6251 95.4376 62.6251 95.4376 62.625 95.4376C62.3267 95.4375 62.0406 95.319 61.8296 95.108C61.6187 94.897 61.5001 94.6109 61.5001 94.3125C61.5001 93.0202 62.0789 91.9651 62.976 91.0221C63.8833 90.0682 65.0784 89.2677 66.2551 88.4823L66.2552 88.4822L66.2802 88.4656C67.2979 87.7858 68.3347 87.0934 69.1142 86.3521C69.8977 85.6071 70.5075 84.7332 70.5075 83.6802C70.5075 82.665 70.0447 81.9873 69.5125 81.5626C68.9994 81.1531 68.4302 80.9824 68.1659 80.9199C67.2787 80.7039 66.3442 80.7988 65.5185 81.1888C64.6929 81.5787 64.0262 82.24 63.6294 83.0622C63.5639 83.1944 63.473 83.3125 63.3618 83.4097C63.2502 83.5074 63.1204 83.582 62.9798 83.6292C62.8393 83.6765 62.6908 83.6956 62.5428 83.6853C62.3949 83.6749 62.2505 83.6355 62.1178 83.5692C61.9852 83.5029 61.867 83.411 61.77 83.2988C61.673 83.1866 61.5991 83.0564 61.5526 82.9156C61.5061 82.7748 61.4879 82.6262 61.499 82.4783C61.5102 82.3304 61.5504 82.1862 61.6175 82.0539L61.6175 82.0539L61.6197 82.0494C62.2478 80.7792 63.288 79.7593 64.5704 79.1564C65.8528 78.5534 67.3017 78.4029 68.6806 78.7296Z" fill="white" stroke="#F8437E"/>
<path d="M85.1796 87.9063V87.4063V78.7735C85.1796 78.7735 85.1796 78.7734 85.1796 78.7734C85.1795 78.5404 85.1071 78.3132 84.9724 78.1231C84.8377 77.933 84.6473 77.7894 84.4275 77.7122C84.2077 77.6349 83.9693 77.6278 83.7452 77.6918C83.5212 77.7558 83.3225 77.8878 83.1767 78.0696L74.9504 88.3274C74.9504 88.3275 74.9503 88.3276 74.9502 88.3277C74.8178 88.4931 74.7348 88.6925 74.7108 88.903C74.6867 89.1136 74.7226 89.3268 74.8143 89.5179C74.9061 89.709 75.0499 89.8703 75.2293 89.9832C75.4087 90.0962 75.6164 90.1561 75.8283 90.1562H82.4296H82.9296V90.6562V95.2265V95.2314H82.9296C82.9282 95.38 82.9562 95.5275 83.0121 95.6653C83.068 95.803 83.1506 95.9283 83.2552 96.0339C83.3598 96.1396 83.4844 96.2234 83.6216 96.2806C83.7588 96.3379 83.9059 96.3673 84.0546 96.3673C84.2033 96.3673 84.3505 96.3379 84.4877 96.2806C84.6249 96.2234 84.7494 96.1396 84.854 96.0339C84.9586 95.9283 85.0412 95.803 85.0971 95.6653C85.153 95.5275 85.181 95.38 85.1796 95.2314L85.1796 95.2265L85.1796 90.6562V90.1562H85.6796H86.9999C87.2983 90.1562 87.5845 90.0377 87.7955 89.8267C88.0065 89.6157 88.125 89.3296 88.125 89.0312L85.1796 87.9063ZM85.1796 87.9063H85.6796H86.9999C87.2983 87.9063 87.5845 88.0248 87.7954 88.2358C88.0064 88.4467 88.125 88.7328 88.125 89.0312L85.1796 87.9063ZM82.4296 87.9063H82.9296V87.4063V83.3969V81.9739L82.0395 83.0841L78.8251 87.0935L78.1735 87.9063H79.2152H82.4296Z" fill="white" stroke="#F8437E"/>
<path d="M95.52 77.6389L95.5201 77.6379C95.5488 77.4931 95.6058 77.3553 95.6879 77.2325C95.77 77.1097 95.8755 77.0043 95.9984 76.9224C96.1213 76.8405 96.2591 76.7836 96.404 76.7551C96.549 76.7266 96.6981 76.727 96.8428 76.7562L96.9419 76.2663L96.8438 76.7564C96.9886 76.7854 97.1263 76.8427 97.249 76.9249C97.3717 77.0071 97.477 77.1127 97.5589 77.2356C97.6408 77.3586 97.6976 77.4964 97.7262 77.6414C97.7548 77.7863 97.7545 77.9354 97.7254 78.0802L97.7253 78.0806L94.0691 96.3618C94.0181 96.6166 93.8805 96.8458 93.6796 97.0106C93.4788 97.1754 93.2273 97.2656 92.9676 97.266C92.8932 97.2659 92.8189 97.2585 92.7459 97.244C92.4534 97.1854 92.1961 97.0131 92.0306 96.7648C91.8652 96.5166 91.8051 96.2127 91.8637 95.9202L91.8637 95.9201L95.52 77.6389Z" fill="white" stroke="#F8437E"/>
<path d="M105.28 95.4383L105.248 95.4383C105.074 95.4327 104.904 95.3871 104.751 95.3048C104.588 95.2172 104.449 95.0907 104.346 94.9365C104.244 94.7824 104.18 94.6053 104.163 94.4209C104.145 94.2367 104.172 94.0509 104.243 93.8799C104.243 93.8798 104.243 93.8797 104.243 93.8796L109.399 81.5047L109.688 80.8124H108.938H103.151C102.855 80.8089 102.573 80.6892 102.365 80.4791C102.156 80.2684 102.039 79.9839 102.039 79.6874C102.039 79.3909 102.156 79.1064 102.365 78.8957C102.573 78.6856 102.855 78.5659 103.151 78.5624H111.375H111.375C111.56 78.5624 111.743 78.6081 111.906 78.6955C112.069 78.7829 112.209 78.9092 112.311 79.0634C112.414 79.2175 112.477 79.3946 112.495 79.579C112.513 79.7633 112.485 79.9492 112.413 80.1201L112.413 80.1204L106.32 94.7452C106.319 94.7453 106.319 94.7453 106.319 94.7454C106.234 94.9505 106.09 95.1257 105.905 95.249C105.72 95.3723 105.503 95.4382 105.28 95.4383Z" fill="white" stroke="#F8437E"/>
<defs>
<linearGradient id="paint0_linear_1429_83" x1="43.25" y1="-43.25" x2="143.058" y2="202.942" gradientUnits="userSpaceOnUse">
<stop stop-color="#F91762"/>
<stop offset="1" stop-color="#F86394" stop-opacity="0.9"/>
</linearGradient>
</defs>
</svg>
