<svg width="119" height="140" viewBox="0 0 119 140" fill="none" xmlns="http://www.w3.org/2000/svg">
<g filter="url(#filter0_d_1315_697)">
<g clip-path="url(#clip0_1315_697)">
<path d="M77.0753 53.3532C72.3388 48.6116 66.041 46 59.343 46C52.6437 46 46.3471 48.6116 41.6107 53.3532C32.8452 62.1267 31.7559 78.6343 39.2516 88.6358L59.343 117.682L79.4043 88.6764C86.93 78.6343 85.8407 62.1267 77.0753 53.3532Z" fill="url(#paint0_linear_1315_697)"/>
<path d="M53.3965 57.0089C55.4573 55.8229 57.5725 54.7129 59.8019 53.9123C60.2515 53.7002 60.6636 54.1173 60.948 54.4337C61.8473 55.5631 62.5438 56.8481 63.2063 58.1383C64.3781 57.9775 65.7474 57.4367 66.7982 58.2691C67.8098 59.2324 68.6188 60.4025 69.4243 61.5514C69.9165 62.292 70.4036 63.0485 70.7323 63.8863C71.5873 66.0391 72.2668 68.2626 72.8714 70.5038C73.2733 71.9443 73.4113 73.452 73.4419 74.9473C73.4283 76.3913 72.0318 77.1496 70.9537 77.7276C69.1672 78.5035 67.7263 79.8751 66.2821 81.176C66.0403 81.3704 65.7644 81.7257 66.042 82.0226C66.7828 83.069 67.6088 84.0499 68.3991 85.0574C68.9577 85.775 69.5963 86.4484 70.3917 86.8797C70.7749 87.1042 71.2194 86.9539 71.6179 86.8638C72.587 86.6004 73.5833 86.4608 74.583 86.383C73.8745 84.4158 73.1967 82.4274 72.2566 80.5644C72.0113 80.0271 71.8376 79.3236 72.1765 78.7934C72.6432 78.2225 73.2427 77.7894 73.711 77.2185C74.9015 75.8911 75.6679 74.2438 76.4751 72.6566C76.5994 72.3862 76.7595 72.1158 76.7629 71.8064C76.4104 71.2727 75.9472 70.8078 75.7292 70.1909C75.3238 69.0474 75.3443 67.7606 75.736 66.6171C75.9897 65.9242 75.9472 65.1695 76.1175 64.4589C76.3133 64.8107 76.47 65.1818 76.6114 65.5619C77.6996 63.66 79.5662 62.4652 81.0871 60.9752C81.8824 61.6928 82.3235 62.702 82.8549 63.6211C83.2142 63.3684 83.6128 63.0273 84.0777 63.2164C84.8117 63.4921 85.5849 63.6671 86.2883 64.0188C86.3582 64.3882 86.2236 64.7541 86.1367 65.1076C85.8336 66.1133 85.5117 67.1137 85.2988 68.1459C85.1336 68.9926 84.6738 69.7261 84.1952 70.4154C84.0215 70.6311 84.059 70.9245 83.9994 71.1825C83.5327 71.7163 82.877 72.0115 82.2895 72.372C80.8623 73.1939 79.1404 72.9394 77.6366 72.5011C76.7221 74.7423 75.5061 76.8633 73.8898 78.6361C73.6224 78.9525 73.212 79.2406 73.258 79.7178C73.2818 80.522 73.8251 81.1795 74.0755 81.9201C74.2202 82.5175 74.428 83.0972 74.709 83.6399C74.9287 83.122 75.3204 82.6183 75.2353 82.0173C75.1297 81.0876 74.9951 80.1473 75.1654 79.2158C75.5793 77.4024 77.1359 76.1262 78.7947 75.603C81.0087 74.8483 83.3999 75.497 85.4504 76.4726C84.8577 78.5283 84.0096 80.5945 82.5534 82.1552C81.2846 83.5144 79.3533 83.677 77.6349 83.6293C76.9843 83.6293 76.3866 83.3412 75.8075 83.0707C75.5708 83.5886 75.2421 84.0782 75.1331 84.6473C75.162 85.2624 75.4907 85.8104 75.6781 86.3848C77.0405 86.6393 78.4115 86.862 79.7519 87.2403C80.9525 87.4347 82.2145 87.9791 82.8311 89.1333C81.6287 89.3224 80.5114 88.7073 79.3465 88.5305C77.8819 88.276 76.4053 88.0109 74.9151 87.9985C73.5833 87.9809 72.3179 88.5023 70.998 88.5871C70.4036 88.6384 69.8808 88.2654 69.3017 88.2212C68.6545 88.3556 68.101 88.7621 67.4913 89.006C67.5135 90.146 67.4794 91.3727 66.8561 92.3607C66.2447 93.4707 65.0832 94.0452 64.0085 94.5595C62.3003 95.3071 60.4507 95.8021 58.5876 95.7402C57.5827 95.62 56.5677 95.5458 55.5799 95.3089C55.0673 95.2011 54.6688 94.8317 54.2702 94.5082C54.3537 94.2537 54.3264 93.9179 54.5598 93.7482C55.2887 93.1667 56.2816 92.8344 56.6954 91.9135C57.0803 91.0404 57.4192 90.1319 58.0068 89.379C59.279 87.6433 61.4692 86.8532 63.5214 86.9681C64.5569 86.9698 65.5345 87.3605 66.4831 87.7528C67.1745 88.1205 67.883 87.6221 68.5234 87.364C67.1456 85.927 65.8819 84.3822 64.6846 82.7826C63.2489 83.9704 62.0704 85.494 60.4831 86.4855C60.1169 86.7136 59.6809 86.7931 59.2603 86.779C58.6693 86.7418 58.2589 86.2328 57.7241 86.0366C56.2884 86.6181 54.8476 87.2968 53.2944 87.4506C52.3968 87.4895 51.4976 87.47 50.6018 87.4153C48.8289 87.2155 47.0236 87.1059 45.329 86.4873C45.3392 85.3473 45.6884 84.2532 45.7991 83.1238C44.2629 82.8905 42.6432 82.2524 41.8462 80.7712C42.5325 79.7195 43.5203 78.7457 43.534 77.3811C43.4284 75.7126 42.6364 74.1643 42.6194 72.4834C42.7301 71.1012 43.6889 70.0389 44.566 69.0845C44.0159 68.0912 43.396 67.0943 43.2018 65.9454C43.0077 64.8496 42.9311 63.7343 42.8408 62.6243C44.5047 62.4546 46.1567 62.1789 47.8155 61.9703C48.3281 61.9756 48.4814 61.3817 48.759 61.0424C49.8848 59.2519 51.6594 58.0765 53.3965 57.0089ZM59.0764 55.8636C56.331 56.788 53.79 58.3381 51.6083 60.2912C50.658 61.2721 49.7298 62.3556 49.2972 63.6971C48.9958 64.6993 48.8885 65.7704 49.0247 66.8133C49.1984 68.6267 50.1028 70.2652 51.1365 71.6986C52.0732 73.0349 53.5617 73.7489 54.9923 74.3623C55.4675 74.5673 55.9682 74.691 56.4757 74.7794C56.2373 73.5368 55.7502 72.3279 55.8013 71.0411C55.8609 70.4455 55.9904 69.8622 56.1028 69.2771C55.6412 69.1782 55.1831 69.0721 54.725 68.9643C53.5822 68.6674 52.3781 68.7186 51.2541 68.3298C50.3599 68.0859 49.7553 67.2286 49.4863 66.3519C49.1984 64.9362 49.8899 63.5929 50.5558 62.4104C50.8181 61.9827 51.0446 61.4294 51.5572 61.2774C52.7221 61.0954 53.9058 61.3075 55.0741 61.2156C55.7604 60.703 56.4485 60.1356 57.3307 60.0632C57.9165 59.8758 58.407 60.3442 58.7374 60.7896C59.7286 62.2266 61.0213 63.4479 61.7434 65.074C62.2134 66.0479 62.365 67.1402 62.457 68.2131C62.5983 69.2701 62.5898 70.3465 62.52 71.4105C62.2935 73.5916 61.0315 75.5482 59.3761 76.8615C58.7902 77.2397 58.0545 77.2557 57.4022 77.0877C55.5833 76.6194 53.7167 76.2818 51.9779 75.5376C50.7551 74.9579 49.4726 74.3746 48.57 73.3018C48.1153 72.8175 47.8428 72.1794 47.3659 71.7198C46.6353 71.2285 45.7088 71.2055 44.8709 71.3204C44.1641 71.7764 43.9478 72.7008 43.9836 73.5174C43.8422 75.124 44.6682 76.5663 44.8607 78.1253C44.9237 78.8711 44.8402 79.6188 44.83 80.3647C45.1859 80.6687 45.5419 80.9939 45.9813 81.1618C46.6608 81.3403 47.3608 81.1477 48.0148 80.948C49.631 80.4372 51.2489 79.9122 52.7919 79.1893C54.507 78.5176 56.256 77.9043 58.0562 77.5331C59.0798 77.3175 60.3383 77.952 61.1916 77.1355C62.2237 75.824 63.0991 74.387 63.9557 72.9482C64.5245 72.0185 64.9895 71.004 65.233 69.9276C65.3352 69.4751 65.2109 69.0191 65.1257 68.5754C64.8754 67.4513 64.6506 66.3183 64.2878 65.2243C63.5333 62.9442 62.7687 60.6606 61.7979 58.4689C61.4828 57.7636 61.1967 57.0301 60.7283 56.4186C60.3196 55.9696 59.6724 55.6144 59.0764 55.8636ZM65.8291 61.3853C65.7865 62.5518 65.9006 63.7201 66.1408 64.8602C66.6279 66.6029 67.4879 68.3033 67.3789 70.1644C67.3619 70.7018 67.413 71.2815 67.1286 71.7587C66.1306 73.5068 64.826 75.0374 63.5163 76.5363C62.5319 77.4713 61.6957 78.5848 60.5631 79.3395C59.9023 79.8062 59.1717 80.2021 58.6523 80.8472C58.1686 81.4323 57.8229 82.2082 57.9949 82.993C58.3287 83.9633 59.2398 84.794 60.277 84.7127C60.9651 84.589 61.4096 83.9757 61.7468 83.3907C63.0633 81.1618 64.7051 79.055 66.9174 77.7311C68.2713 76.7979 69.908 76.3684 71.1632 75.2725C71.4016 75.0215 71.7354 74.7794 71.7524 74.3941C72.0352 71.7764 71.1206 69.2471 70.2316 66.8468C69.4226 64.7736 68.3769 62.6879 66.6364 61.2951C66.3758 61.1908 66.0931 61.3534 65.8291 61.3853ZM54.8629 63.1528C54.2379 63.9181 53.8189 64.9574 54.0846 65.9631C54.2924 66.435 54.6534 66.8963 55.1456 67.0519C55.7179 66.6118 56.2628 66.1027 56.658 65.4823C56.8862 65.219 56.7176 64.8743 56.6818 64.5721C56.4195 64.5685 56.1573 64.565 55.895 64.5597C55.7008 64.7629 55.5186 64.9803 55.3023 65.1589C54.9821 65.2243 55.0741 64.8831 55.0639 64.6746C55.0417 64.1107 55.3313 63.5257 55.8098 63.25C56.583 62.9513 57.5844 63.25 57.9506 64.0595C58.029 64.5349 58.0238 65.0245 57.9642 65.5018C57.69 66.4686 56.8061 67.0695 56.4808 68.0116C56.7414 67.9445 57.094 68.0205 57.2506 67.7359C57.8723 66.8486 58.4224 65.8747 58.6795 64.8018C58.8498 64.1373 58.8839 63.3825 58.5177 62.7798C58.189 62.1842 57.472 62.0251 56.864 61.9738C56.0363 61.9296 55.3347 62.4988 54.8629 63.1528ZM51.845 63.3507C51.0054 63.934 50.6631 65.1854 51.2115 66.0974C51.5436 66.7832 52.2708 67.0731 52.9316 67.294C52.8737 66.6559 52.7204 66.0249 52.7323 65.3816C52.8107 64.5296 53.3063 63.8032 53.4647 62.9725C52.9078 62.9619 52.2878 62.93 51.845 63.3507ZM80.6903 63.6141C80.1606 64.1761 79.6173 64.7276 79.0434 65.2419C77.8989 66.2795 77.4237 67.9285 77.5225 69.4698C78.0658 68.9714 78.6449 68.4906 79.3465 68.2608C80.5029 67.8631 81.4447 66.9582 82.1021 65.9171C82.6096 64.998 82.2605 63.6795 81.3919 63.1386C81.0956 63.1651 80.8997 63.4285 80.6903 63.6141ZM44.457 64.2292C44.3446 66.0126 45.3648 67.7306 46.9044 68.503C46.8788 66.9511 46.8294 65.3922 47.107 63.858C46.2112 63.8615 45.3307 64.0436 44.457 64.2292ZM83.3028 63.9835C83.2892 64.717 83.4731 65.4912 83.1785 66.1893C82.8924 66.8822 82.3576 67.4142 81.8382 67.9215C81.8177 68.2007 81.8518 68.4959 81.753 68.7628C81.1177 69.1941 80.2015 69.3019 79.8966 70.1238C81.3766 70.2387 82.4785 69.0226 83.1461 67.796C83.6349 66.8362 84.2497 65.9171 84.5239 64.8584C84.495 64.1973 83.8239 64.0153 83.3028 63.9835ZM59.8581 65.4081C59.3778 66.1275 58.8498 66.8398 58.5995 67.6882C58.0341 69.3319 58.1567 71.0977 58.4479 72.7856C59.2535 71.9001 60.0216 70.928 60.4405 69.7756C60.8033 68.3033 60.4746 66.7567 59.8581 65.4081ZM79.0638 76.2499C78.0794 76.5681 77.1717 77.2115 76.5722 78.0881C75.9046 79.0726 75.9403 80.3629 76.1481 81.4941C77.1495 81.3916 77.9823 80.7588 78.8066 80.218C80.428 79.0762 82.0647 77.9609 83.7081 76.8562C82.2605 76.2128 80.6204 75.9035 79.0638 76.2499ZM51.6696 82.0473C50.4417 82.5599 49.1405 82.818 47.8598 83.1326C47.9058 84.0817 48.4116 85.1847 49.3721 85.418C51.5708 85.5311 53.9228 85.3137 55.7877 83.9792C55.2359 82.9824 54.6722 81.9873 54.3384 80.8843C53.434 81.2378 52.5859 81.7274 51.6696 82.0473ZM62.067 87.9349C60.805 88.1435 59.4919 88.6437 58.6983 89.7413C58.0596 90.5261 57.9319 91.5972 57.3647 92.4261C57.0003 93.0023 56.4502 93.4036 55.9716 93.8666C57.5572 94.0345 59.497 93.9939 60.5751 92.5764C61.3926 91.3303 62.3054 90.1266 63.4669 89.2075C64.0868 88.7232 64.8532 88.5394 65.5719 88.2707C64.4241 88.0021 63.2455 87.7493 62.067 87.9349Z" fill="#F7F1F3"/>
</g>
</g>
<defs>
<filter id="filter0_d_1315_697" x="0" y="0" width="119" height="140" filterUnits="userSpaceOnUse" color-interpolation-filters="sRGB">
<feFlood flood-opacity="0" result="BackgroundImageFix"/>
<feColorMatrix in="SourceAlpha" type="matrix" values="0 0 0 0 0 0 0 0 0 0 0 0 0 0 0 0 0 0 127 0" result="hardAlpha"/>
<feOffset dy="-12"/>
<feGaussianBlur stdDeviation="17"/>
<feColorMatrix type="matrix" values="0 0 0 0 1 0 0 0 0 0.533333 0 0 0 0 0.6882 0 0 0 0.7 0"/>
<feBlend mode="normal" in2="BackgroundImageFix" result="effect1_dropShadow_1315_697"/>
<feBlend mode="normal" in="SourceGraphic" in2="effect1_dropShadow_1315_697" result="shape"/>
</filter>
<linearGradient id="paint0_linear_1315_697" x1="46.8026" y1="28.0795" x2="98.3266" y2="116.998" gradientUnits="userSpaceOnUse">
<stop stop-color="#F91762"/>
<stop offset="1" stop-color="#F86394" stop-opacity="0.9"/>
</linearGradient>
<clipPath id="clip0_1315_697">
<rect x="34" y="46" width="51" height="72" rx="25.5" fill="white"/>
</clipPath>
</defs>
</svg>
