<svg width="80" height="80" viewBox="0 0 80 80" fill="none" xmlns="http://www.w3.org/2000/svg">
<mask id="path-1-inside-1_1303_101" fill="white">
<path d="M54.5411 20.9545C54.9276 20.2751 55.1608 19.5193 55.2244 18.7402C55.288 17.9611 55.1804 17.1775 54.9093 16.4443C54.6381 15.7112 54.2098 15.0462 53.6545 14.496C53.0993 13.9458 52.4304 13.5237 51.6947 13.2593C51.4869 12.063 50.8831 10.9713 49.9802 10.1595C49.0773 9.34768 47.9278 8.86287 46.7162 8.78291C46.5502 8.13037 46.2542 7.51806 45.8459 6.98268C45.4376 6.44729 44.9254 5.99983 44.34 5.66713C44.1958 4.45094 43.6108 3.32978 42.6957 2.5158C41.7806 1.70183 40.5989 1.2515 39.3742 1.25002C38.1094 1.24623 36.8916 1.72922 35.9733 2.5989C34.8947 2.38317 33.775 2.53054 32.7889 3.018C31.8028 3.50546 31.0058 4.3056 30.5222 5.2936C29.3726 4.90214 28.1258 4.90216 26.9762 5.29367C26.4927 4.30583 25.6959 3.50577 24.7101 3.0183C23.7242 2.53082 22.6047 2.38336 21.5262 2.5989C20.6072 1.72964 19.3892 1.24675 18.1242 1.25002C16.8995 1.2515 15.7178 1.70183 14.8027 2.5158C13.8876 3.32978 13.3026 4.45093 13.1584 5.66713C12.5742 6.00032 12.0633 6.44794 11.6562 6.98321C11.2491 7.51847 10.9541 8.13038 10.7891 8.7823C9.5762 8.86081 8.42502 9.34506 7.52074 10.1571C6.61645 10.9692 6.01164 12.0618 5.80362 13.2593C5.068 13.5237 4.3991 13.9458 3.84382 14.496C3.28853 15.0462 2.86029 15.7112 2.5891 16.4443C2.31792 17.1775 2.21035 17.9611 2.27395 18.7402C2.33754 19.5193 2.57076 20.2751 2.95724 20.9545C1.95677 21.8599 1.34835 23.1195 1.26101 24.466C1.17367 25.8125 1.61429 27.1401 2.48942 28.1671L22.1317 51.2781C20.6156 53.1903 18.6796 55.6238 18.0387 56.4069C17.8666 56.5319 17.7275 56.697 17.6335 56.8879C17.5395 57.0787 17.4934 57.2896 17.4992 57.5023C17.505 57.715 17.5624 57.923 17.6666 58.1085C17.7709 58.294 17.9187 58.4513 18.0973 58.5668C19.4995 59.9933 21.1738 61.1236 23.021 61.8907C24.8683 62.6578 26.8507 63.046 28.8509 63.0324C30.851 63.0188 32.828 62.6036 34.6646 61.8115C36.5012 61.0193 38.1601 59.8664 39.5426 58.421C39.6783 58.3079 39.7888 58.1677 39.8673 58.0095C39.9457 57.8513 39.9903 57.6785 39.9982 57.502C40.0062 57.3256 39.9772 57.1495 39.9133 56.9849C39.8493 56.8203 39.7518 56.6708 39.6269 56.546C39.2887 56.156 37.0683 53.3935 35.3691 51.2737L55.0089 28.1684C55.8843 27.1411 56.325 25.8133 56.2377 24.4666C56.1503 23.1198 55.5418 21.8601 54.5411 20.9545V20.9545ZM49.2631 14.2359C49.2631 14.5316 49.368 14.8178 49.5591 15.0435C49.7502 15.2692 50.0151 15.4199 50.3068 15.4688C50.7579 15.5395 51.1858 15.7164 51.5551 15.9848C51.9244 16.2533 52.2246 16.6058 52.431 17.013C52.6374 17.4203 52.7441 17.8708 52.7422 18.3274C52.7403 18.784 52.6299 19.2336 52.4202 19.6392C47.9218 17.2266 43.0798 15.5184 38.0633 14.5742C38.203 14.1741 38.4293 13.8097 38.7262 13.5072C39.023 13.2046 39.3829 12.9714 39.7803 12.824C40.1777 12.6767 40.6027 12.6189 41.025 12.6548C41.4473 12.6906 41.8565 12.8193 42.2233 13.0316C42.5025 13.19 42.8318 13.235 43.1432 13.1571C43.4545 13.0793 43.724 12.8847 43.8957 12.6135C44.2341 12.0732 44.7409 11.6591 45.3378 11.4351C45.9348 11.2112 46.5888 11.1898 47.1992 11.3743C47.8095 11.5588 48.3422 11.9388 48.7152 12.456C49.0882 12.9731 49.2807 13.5985 49.2631 14.2359H49.2631ZM35.9159 5.18127C36.1715 5.28196 36.453 5.29589 36.7173 5.2209C36.9815 5.14592 37.2138 4.98618 37.3783 4.76627C37.6962 4.33147 38.147 4.01199 38.6626 3.85613C39.1782 3.70027 39.7305 3.71651 40.2361 3.9024C40.7416 4.08828 41.1728 4.4337 41.4646 4.88644C41.7564 5.33917 41.8929 5.8746 41.8534 6.41177C41.8403 6.68137 41.9148 6.94797 42.0657 7.17173C42.2166 7.3955 42.4359 7.56441 42.6908 7.65323C43.0447 7.77764 43.3658 7.98065 43.63 8.24699C43.8942 8.51334 44.0945 8.8361 44.216 9.19101C43.5551 9.47626 42.9581 9.89101 42.4601 10.4108C41.9243 10.2305 41.3628 10.1388 40.7975 10.1392C39.9357 10.1451 39.0882 10.3592 38.327 10.7633C37.2128 9.56017 35.6725 8.84008 34.0348 8.75673C33.7484 7.94684 33.2806 7.21315 32.6672 6.61173C32.7854 6.30362 32.9635 6.02197 33.1911 5.78303C33.4188 5.54409 33.6915 5.35261 33.9935 5.21962C34.2955 5.08663 34.6209 5.01477 34.9509 5.00818C35.2808 5.0016 35.6088 5.06043 35.9159 5.18127V5.18127ZM31.8278 10.2277C31.8965 10.5667 32.093 10.8663 32.3767 11.0642C32.6603 11.2622 33.0093 11.3434 33.3512 11.2909C33.9136 11.2197 34.4849 11.2817 35.019 11.472C35.553 11.6623 36.0347 11.9755 36.4253 12.3864C36.036 12.9253 35.75 13.5316 35.5818 14.1747C31.0477 13.5568 26.4507 13.5568 21.9165 14.1747C21.7483 13.5316 21.4622 12.9251 21.0729 12.3863C21.4768 11.9608 21.9782 11.6402 22.5339 11.4521C23.0895 11.264 23.6826 11.2141 24.2619 11.3068C24.4253 11.3289 24.5915 11.3185 24.7509 11.2762C24.9103 11.2339 25.0598 11.1605 25.1907 11.0602C25.3216 10.9599 25.4314 10.8347 25.5138 10.6919C25.5961 10.549 25.6494 10.3912 25.6706 10.2277C25.762 9.47549 26.1256 8.78277 26.6928 8.28032C27.26 7.77787 27.9915 7.50046 28.7492 7.50046C29.507 7.50046 30.2385 7.77787 30.8057 8.28032C31.3729 8.78277 31.7365 9.47549 31.8279 10.2277H31.8278ZM14.8075 7.65322C15.0624 7.5644 15.2817 7.39548 15.4326 7.17172C15.5835 6.94795 15.658 6.68135 15.6449 6.41176C15.6055 5.87462 15.742 5.33925 16.0337 4.88655C16.3255 4.43385 16.7567 4.08843 17.2622 3.9025C17.7677 3.71657 18.3199 3.70023 18.8355 3.85595C19.3511 4.01168 19.802 4.331 20.12 4.76566C20.2841 4.98581 20.5161 5.14581 20.7802 5.22093C21.0443 5.29604 21.3258 5.28211 21.5812 5.18127C21.8884 5.06006 22.2165 5.00094 22.5467 5.00733C22.8768 5.01372 23.2024 5.08549 23.5046 5.2185C23.8069 5.3515 24.0797 5.5431 24.3075 5.78221C24.5352 6.02132 24.7133 6.3032 24.8314 6.61156C24.2179 7.21301 23.75 7.94675 23.4636 8.75671C21.8258 8.8398 20.2853 9.55991 19.1712 10.7633C18.4101 10.3592 17.5626 10.1451 16.7008 10.1392C16.1356 10.1388 15.574 10.2305 15.0382 10.4108C14.5379 9.88794 13.9373 9.47125 13.2724 9.18558C13.3971 8.83145 13.5998 8.50987 13.8655 8.24463C14.1312 7.97939 14.4531 7.77727 14.8075 7.65322V7.65322ZM7.19157 15.4688C7.48326 15.4199 7.74818 15.2692 7.93927 15.0435C8.13037 14.8178 8.23526 14.5316 8.23532 14.2359C8.21775 13.5985 8.41029 12.9731 8.78327 12.456C9.15625 11.9388 9.68896 11.5588 10.2993 11.3743C10.9096 11.1898 11.5637 11.2112 12.1606 11.4351C12.7576 11.6591 13.2643 12.0732 13.6027 12.6135C13.7743 12.8848 14.0438 13.0796 14.3552 13.1574C14.6666 13.2353 14.996 13.1902 15.2751 13.0316C15.7078 12.7783 16.1995 12.6429 16.7009 12.6391C17.3004 12.641 17.8847 12.8278 18.3741 13.1741C18.8635 13.5205 19.234 14.0094 19.4352 14.5741C14.4187 15.5183 9.57671 17.2265 5.07827 19.6391C4.86854 19.2336 4.75819 18.784 4.75631 18.3274C4.75444 17.8708 4.86108 17.4203 5.06747 17.013C5.27385 16.6058 5.57407 16.2533 5.94337 15.9849C6.31267 15.7164 6.74049 15.5395 7.19157 15.4688V15.4688ZM37.0805 57.3328C34.8 59.3895 31.839 60.5294 28.7681 60.5329C25.6971 60.5363 22.7336 59.4032 20.4484 57.3517C21.2477 56.4173 22.4549 54.8968 24.3537 52.5H26.7265L25.131 55.6909C24.9837 55.9874 24.9599 56.3302 25.065 56.6441C25.17 56.958 25.3953 57.2175 25.6914 57.3655C25.9875 57.5136 26.3302 57.5381 26.6444 57.4338C26.9586 57.3295 27.2186 57.1049 27.3673 56.8091L28.7492 54.0448L30.131 56.8091C30.2042 56.9563 30.3057 57.0877 30.4297 57.1957C30.5537 57.3036 30.6978 57.386 30.8538 57.4382C31.0097 57.4904 31.1744 57.5113 31.3384 57.4997C31.5024 57.4882 31.6625 57.4444 31.8096 57.3708C31.9567 57.2973 32.0878 57.1955 32.1954 57.0712C32.3031 56.9469 32.3852 56.8026 32.437 56.6466C32.4888 56.4906 32.5093 56.3258 32.4974 56.1618C32.4854 55.9978 32.4412 55.8378 32.3673 55.6909L30.7719 52.5H33.1481C35.0669 54.8982 36.2806 56.4098 37.0805 57.3328ZM53.1046 26.5485L33.1716 50H24.3268L4.39374 26.5473C4.13646 26.2443 3.94906 25.8884 3.84486 25.5049C3.74066 25.1213 3.72223 24.7195 3.79087 24.3281C3.8595 23.9366 4.01352 23.565 4.24199 23.2398C4.47045 22.9146 4.76775 22.6437 5.11274 22.4463C12.3172 18.351 20.4621 16.1978 28.7492 16.1978C37.0363 16.1978 45.1812 18.351 52.3857 22.4463C52.7307 22.6438 53.0279 22.9149 53.2564 23.2402C53.4848 23.5655 53.6388 23.9372 53.7074 24.3287C53.776 24.7203 53.7576 25.1222 53.6534 25.5058C53.5493 25.8894 53.3619 26.2454 53.1046 26.5485V26.5485Z"/>
</mask>
<path d="M54.5411 20.9545C54.9276 20.2751 55.1608 19.5193 55.2244 18.7402C55.288 17.9611 55.1804 17.1775 54.9093 16.4443C54.6381 15.7112 54.2098 15.0462 53.6545 14.496C53.0993 13.9458 52.4304 13.5237 51.6947 13.2593C51.4869 12.063 50.8831 10.9713 49.9802 10.1595C49.0773 9.34768 47.9278 8.86287 46.7162 8.78291C46.5502 8.13037 46.2542 7.51806 45.8459 6.98268C45.4376 6.44729 44.9254 5.99983 44.34 5.66713C44.1958 4.45094 43.6108 3.32978 42.6957 2.5158C41.7806 1.70183 40.5989 1.2515 39.3742 1.25002C38.1094 1.24623 36.8916 1.72922 35.9733 2.5989C34.8947 2.38317 33.775 2.53054 32.7889 3.018C31.8028 3.50546 31.0058 4.3056 30.5222 5.2936C29.3726 4.90214 28.1258 4.90216 26.9762 5.29367C26.4927 4.30583 25.6959 3.50577 24.7101 3.0183C23.7242 2.53082 22.6047 2.38336 21.5262 2.5989C20.6072 1.72964 19.3892 1.24675 18.1242 1.25002C16.8995 1.2515 15.7178 1.70183 14.8027 2.5158C13.8876 3.32978 13.3026 4.45093 13.1584 5.66713C12.5742 6.00032 12.0633 6.44794 11.6562 6.98321C11.2491 7.51847 10.9541 8.13038 10.7891 8.7823C9.5762 8.86081 8.42502 9.34506 7.52074 10.1571C6.61645 10.9692 6.01164 12.0618 5.80362 13.2593C5.068 13.5237 4.3991 13.9458 3.84382 14.496C3.28853 15.0462 2.86029 15.7112 2.5891 16.4443C2.31792 17.1775 2.21035 17.9611 2.27395 18.7402C2.33754 19.5193 2.57076 20.2751 2.95724 20.9545C1.95677 21.8599 1.34835 23.1195 1.26101 24.466C1.17367 25.8125 1.61429 27.1401 2.48942 28.1671L22.1317 51.2781C20.6156 53.1903 18.6796 55.6238 18.0387 56.4069C17.8666 56.5319 17.7275 56.697 17.6335 56.8879C17.5395 57.0787 17.4934 57.2896 17.4992 57.5023C17.505 57.715 17.5624 57.923 17.6666 58.1085C17.7709 58.294 17.9187 58.4513 18.0973 58.5668C19.4995 59.9933 21.1738 61.1236 23.021 61.8907C24.8683 62.6578 26.8507 63.046 28.8509 63.0324C30.851 63.0188 32.828 62.6036 34.6646 61.8115C36.5012 61.0193 38.1601 59.8664 39.5426 58.421C39.6783 58.3079 39.7888 58.1677 39.8673 58.0095C39.9457 57.8513 39.9903 57.6785 39.9982 57.502C40.0062 57.3256 39.9772 57.1495 39.9133 56.9849C39.8493 56.8203 39.7518 56.6708 39.6269 56.546C39.2887 56.156 37.0683 53.3935 35.3691 51.2737L55.0089 28.1684C55.8843 27.1411 56.325 25.8133 56.2377 24.4666C56.1503 23.1198 55.5418 21.8601 54.5411 20.9545V20.9545ZM49.2631 14.2359C49.2631 14.5316 49.368 14.8178 49.5591 15.0435C49.7502 15.2692 50.0151 15.4199 50.3068 15.4688C50.7579 15.5395 51.1858 15.7164 51.5551 15.9848C51.9244 16.2533 52.2246 16.6058 52.431 17.013C52.6374 17.4203 52.7441 17.8708 52.7422 18.3274C52.7403 18.784 52.6299 19.2336 52.4202 19.6392C47.9218 17.2266 43.0798 15.5184 38.0633 14.5742C38.203 14.1741 38.4293 13.8097 38.7262 13.5072C39.023 13.2046 39.3829 12.9714 39.7803 12.824C40.1777 12.6767 40.6027 12.6189 41.025 12.6548C41.4473 12.6906 41.8565 12.8193 42.2233 13.0316C42.5025 13.19 42.8318 13.235 43.1432 13.1571C43.4545 13.0793 43.724 12.8847 43.8957 12.6135C44.2341 12.0732 44.7409 11.6591 45.3378 11.4351C45.9348 11.2112 46.5888 11.1898 47.1992 11.3743C47.8095 11.5588 48.3422 11.9388 48.7152 12.456C49.0882 12.9731 49.2807 13.5985 49.2631 14.2359H49.2631ZM35.9159 5.18127C36.1715 5.28196 36.453 5.29589 36.7173 5.2209C36.9815 5.14592 37.2138 4.98618 37.3783 4.76627C37.6962 4.33147 38.147 4.01199 38.6626 3.85613C39.1782 3.70027 39.7305 3.71651 40.2361 3.9024C40.7416 4.08828 41.1728 4.4337 41.4646 4.88644C41.7564 5.33917 41.8929 5.8746 41.8534 6.41177C41.8403 6.68137 41.9148 6.94797 42.0657 7.17173C42.2166 7.3955 42.4359 7.56441 42.6908 7.65323C43.0447 7.77764 43.3658 7.98065 43.63 8.24699C43.8942 8.51334 44.0945 8.8361 44.216 9.19101C43.5551 9.47626 42.9581 9.89101 42.4601 10.4108C41.9243 10.2305 41.3628 10.1388 40.7975 10.1392C39.9357 10.1451 39.0882 10.3592 38.327 10.7633C37.2128 9.56017 35.6725 8.84008 34.0348 8.75673C33.7484 7.94684 33.2806 7.21315 32.6672 6.61173C32.7854 6.30362 32.9635 6.02197 33.1911 5.78303C33.4188 5.54409 33.6915 5.35261 33.9935 5.21962C34.2955 5.08663 34.6209 5.01477 34.9509 5.00818C35.2808 5.0016 35.6088 5.06043 35.9159 5.18127V5.18127ZM31.8278 10.2277C31.8965 10.5667 32.093 10.8663 32.3767 11.0642C32.6603 11.2622 33.0093 11.3434 33.3512 11.2909C33.9136 11.2197 34.4849 11.2817 35.019 11.472C35.553 11.6623 36.0347 11.9755 36.4253 12.3864C36.036 12.9253 35.75 13.5316 35.5818 14.1747C31.0477 13.5568 26.4507 13.5568 21.9165 14.1747C21.7483 13.5316 21.4622 12.9251 21.0729 12.3863C21.4768 11.9608 21.9782 11.6402 22.5339 11.4521C23.0895 11.264 23.6826 11.2141 24.2619 11.3068C24.4253 11.3289 24.5915 11.3185 24.7509 11.2762C24.9103 11.2339 25.0598 11.1605 25.1907 11.0602C25.3216 10.9599 25.4314 10.8347 25.5138 10.6919C25.5961 10.549 25.6494 10.3912 25.6706 10.2277C25.762 9.47549 26.1256 8.78277 26.6928 8.28032C27.26 7.77787 27.9915 7.50046 28.7492 7.50046C29.507 7.50046 30.2385 7.77787 30.8057 8.28032C31.3729 8.78277 31.7365 9.47549 31.8279 10.2277H31.8278ZM14.8075 7.65322C15.0624 7.5644 15.2817 7.39548 15.4326 7.17172C15.5835 6.94795 15.658 6.68135 15.6449 6.41176C15.6055 5.87462 15.742 5.33925 16.0337 4.88655C16.3255 4.43385 16.7567 4.08843 17.2622 3.9025C17.7677 3.71657 18.3199 3.70023 18.8355 3.85595C19.3511 4.01168 19.802 4.331 20.12 4.76566C20.2841 4.98581 20.5161 5.14581 20.7802 5.22093C21.0443 5.29604 21.3258 5.28211 21.5812 5.18127C21.8884 5.06006 22.2165 5.00094 22.5467 5.00733C22.8768 5.01372 23.2024 5.08549 23.5046 5.2185C23.8069 5.3515 24.0797 5.5431 24.3075 5.78221C24.5352 6.02132 24.7133 6.3032 24.8314 6.61156C24.2179 7.21301 23.75 7.94675 23.4636 8.75671C21.8258 8.8398 20.2853 9.55991 19.1712 10.7633C18.4101 10.3592 17.5626 10.1451 16.7008 10.1392C16.1356 10.1388 15.574 10.2305 15.0382 10.4108C14.5379 9.88794 13.9373 9.47125 13.2724 9.18558C13.3971 8.83145 13.5998 8.50987 13.8655 8.24463C14.1312 7.97939 14.4531 7.77727 14.8075 7.65322V7.65322ZM7.19157 15.4688C7.48326 15.4199 7.74818 15.2692 7.93927 15.0435C8.13037 14.8178 8.23526 14.5316 8.23532 14.2359C8.21775 13.5985 8.41029 12.9731 8.78327 12.456C9.15625 11.9388 9.68896 11.5588 10.2993 11.3743C10.9096 11.1898 11.5637 11.2112 12.1606 11.4351C12.7576 11.6591 13.2643 12.0732 13.6027 12.6135C13.7743 12.8848 14.0438 13.0796 14.3552 13.1574C14.6666 13.2353 14.996 13.1902 15.2751 13.0316C15.7078 12.7783 16.1995 12.6429 16.7009 12.6391C17.3004 12.641 17.8847 12.8278 18.3741 13.1741C18.8635 13.5205 19.234 14.0094 19.4352 14.5741C14.4187 15.5183 9.57671 17.2265 5.07827 19.6391C4.86854 19.2336 4.75819 18.784 4.75631 18.3274C4.75444 17.8708 4.86108 17.4203 5.06747 17.013C5.27385 16.6058 5.57407 16.2533 5.94337 15.9849C6.31267 15.7164 6.74049 15.5395 7.19157 15.4688V15.4688ZM37.0805 57.3328C34.8 59.3895 31.839 60.5294 28.7681 60.5329C25.6971 60.5363 22.7336 59.4032 20.4484 57.3517C21.2477 56.4173 22.4549 54.8968 24.3537 52.5H26.7265L25.131 55.6909C24.9837 55.9874 24.9599 56.3302 25.065 56.6441C25.17 56.958 25.3953 57.2175 25.6914 57.3655C25.9875 57.5136 26.3302 57.5381 26.6444 57.4338C26.9586 57.3295 27.2186 57.1049 27.3673 56.8091L28.7492 54.0448L30.131 56.8091C30.2042 56.9563 30.3057 57.0877 30.4297 57.1957C30.5537 57.3036 30.6978 57.386 30.8538 57.4382C31.0097 57.4904 31.1744 57.5113 31.3384 57.4997C31.5024 57.4882 31.6625 57.4444 31.8096 57.3708C31.9567 57.2973 32.0878 57.1955 32.1954 57.0712C32.3031 56.9469 32.3852 56.8026 32.437 56.6466C32.4888 56.4906 32.5093 56.3258 32.4974 56.1618C32.4854 55.9978 32.4412 55.8378 32.3673 55.6909L30.7719 52.5H33.1481C35.0669 54.8982 36.2806 56.4098 37.0805 57.3328ZM53.1046 26.5485L33.1716 50H24.3268L4.39374 26.5473C4.13646 26.2443 3.94906 25.8884 3.84486 25.5049C3.74066 25.1213 3.72223 24.7195 3.79087 24.3281C3.8595 23.9366 4.01352 23.565 4.24199 23.2398C4.47045 22.9146 4.76775 22.6437 5.11274 22.4463C12.3172 18.351 20.4621 16.1978 28.7492 16.1978C37.0363 16.1978 45.1812 18.351 52.3857 22.4463C52.7307 22.6438 53.0279 22.9149 53.2564 23.2402C53.4848 23.5655 53.6388 23.9372 53.7074 24.3287C53.776 24.7203 53.7576 25.1222 53.6534 25.5058C53.5493 25.8894 53.3619 26.2454 53.1046 26.5485V26.5485Z" fill="url(#paint0_linear_1303_101)" stroke="white" stroke-width="0.8" mask="url(#path-1-inside-1_1303_101)"/>
<g filter="url(#filter0_bi_1303_101)">
<path d="M64.375 30C61.8737 30.014 59.4051 30.57 57.1393 31.6296C54.8734 32.6893 52.8642 34.2275 51.25 36.1383C49.6358 34.2275 47.6266 32.6893 45.3607 31.6296C43.0949 30.57 40.6263 30.014 38.125 30C30.0647 30 23.75 37.3213 23.75 46.6669C23.75 53.3576 27.2473 66.4044 50.6726 78.6084C50.8509 78.7014 51.0489 78.75 51.25 78.75C51.4511 78.75 51.6491 78.7014 51.8274 78.6084C75.2527 66.4044 78.75 53.3576 78.75 46.6669C78.75 37.3213 72.4353 30 64.375 30ZM72.5 47.9169C72.3358 47.9169 72.1733 47.8846 72.0216 47.8218C71.8699 47.759 71.7321 47.6669 71.616 47.5509C71.4999 47.4348 71.4079 47.297 71.3451 47.1453C71.2823 46.9936 71.25 46.8311 71.25 46.6669C71.25 42.2229 68.8403 37.5 64.375 37.5C64.0435 37.5 63.7255 37.3683 63.4911 37.1339C63.2567 36.8995 63.125 36.5815 63.125 36.25C63.125 35.9185 63.2567 35.6005 63.4911 35.3661C63.7255 35.1317 64.0435 35 64.375 35C70.4639 35 73.75 41.0113 73.75 46.6669C73.75 46.831 73.7177 46.9936 73.6549 47.1453C73.5921 47.297 73.5001 47.4348 73.384 47.5509C73.2679 47.6669 73.1301 47.759 72.9784 47.8218C72.8267 47.8846 72.6642 47.9169 72.5 47.9169Z" fill="#F91762" fill-opacity="0.38"/>
</g>
<defs>
<filter id="filter0_bi_1303_101" x="19.75" y="26" width="63" height="58.75" filterUnits="userSpaceOnUse" color-interpolation-filters="sRGB">
<feFlood flood-opacity="0" result="BackgroundImageFix"/>
<feGaussianBlur in="BackgroundImage" stdDeviation="2"/>
<feComposite in2="SourceAlpha" operator="in" result="effect1_backgroundBlur_1303_101"/>
<feBlend mode="normal" in="SourceGraphic" in2="effect1_backgroundBlur_1303_101" result="shape"/>
<feColorMatrix in="SourceAlpha" type="matrix" values="0 0 0 0 0 0 0 0 0 0 0 0 0 0 0 0 0 0 127 0" result="hardAlpha"/>
<feOffset dy="6"/>
<feGaussianBlur stdDeviation="8"/>
<feComposite in2="hardAlpha" operator="arithmetic" k2="-1" k3="1"/>
<feColorMatrix type="matrix" values="0 0 0 0 1 0 0 0 0 1 0 0 0 0 1 0 0 0 0.65 0"/>
<feBlend mode="normal" in2="shape" result="effect2_innerShadow_1303_101"/>
</filter>
<linearGradient id="paint0_linear_1303_101" x1="14" y1="-6" x2="38" y2="68" gradientUnits="userSpaceOnUse">
<stop stop-color="#F91762"/>
<stop offset="1" stop-color="#F91762" stop-opacity="0"/>
</linearGradient>
</defs>
</svg>
