<svg width="54" height="14" viewBox="0 0 54 14" fill="none" xmlns="http://www.w3.org/2000/svg">
<path d="M36.2199 13.826C33.8399 13.826 31.7319 13.486 29.8959 12.806C28.1279 12.126 26.0199 11.106 23.5719 9.746C21.1919 8.454 19.1859 7.502 17.5539 6.89C15.9899 6.21 14.1539 5.87 12.0459 5.87C7.62588 5.87 4.19188 7.842 1.74388 11.786L0.315883 11.276C1.87988 7.876 4.12388 5.224 7.04788 3.32C10.0399 1.348 13.4059 0.361998 17.1459 0.361998C19.5259 0.361998 21.5999 0.701998 23.3679 1.382C25.2039 2.062 27.3459 3.082 29.7939 4.442C32.1739 5.734 34.1459 6.72 35.7099 7.4C37.3419 8.012 39.2119 8.318 41.3199 8.318C45.7399 8.318 49.1739 6.346 51.6219 2.402L53.0499 2.912C51.4859 6.312 49.2079 8.998 46.2159 10.97C43.2919 12.874 39.9599 13.826 36.2199 13.826Z" fill="#ECE2E6"/>
</svg>
