<svg width="245" height="62" viewBox="0 0 245 62" fill="none" xmlns="http://www.w3.org/2000/svg">
<path d="M150.287 13.9094C150.993 13.3545 151.813 14.0451 152.213 14.6398C152.861 15.6513 153.466 16.8219 153.291 18.0628C153.15 19.0016 152.697 19.9428 151.879 20.4719C151.138 21.0221 150.144 21.5278 149.219 21.1649C147.961 18.8963 148.284 15.6396 150.287 13.9094Z" fill="#10103A"/>
<path d="M69.2131 17.7326C70.5782 15.9767 72.9671 15.2275 75.1246 15.5248C76.0994 15.6489 76.997 16.274 77.4294 17.1614C77.9577 18.1166 77.9296 19.2381 78.0605 20.2917C78.7781 19.3598 79.3158 18.2922 80.1479 17.4517C81.3634 16.1265 83.1539 15.2181 84.9819 15.3914C86.3563 15.471 87.8336 16.068 88.5325 17.3253C89.4652 18.8307 89.4348 20.6686 89.533 22.3754C90.51 21.3218 91.4497 20.1371 92.8499 19.6361C94.4137 18.9899 96.452 19.0578 97.7282 20.2729C98.6866 21.2188 99.0185 22.6119 99.0606 23.9183C99.2102 27.3178 98.1911 30.6049 97.4735 33.8897C97.0644 35.1798 97.0878 36.5471 97.2514 37.8746C97.6464 37.8886 98.0438 37.9402 98.4388 37.884C99.6169 37.2471 100.508 36.2146 101.473 35.3109C102.004 34.8942 101.997 34.1848 102.139 33.5854C102.791 30.5698 104.463 27.6479 107.16 26.0371C108.745 25.1428 110.69 24.6558 112.473 25.206C113.929 25.5829 114.9 27.1375 114.783 28.6078C114.743 29.8417 114.06 31.0006 113.069 31.7171C111.307 33.1335 109.042 33.5971 107.041 34.5547C106.615 34.7162 106.779 35.2547 106.744 35.6036C106.714 36.4488 107.186 37.2963 107.981 37.6264C109.778 38.3827 111.95 38.2234 113.56 37.0973C116.117 35.3015 117.712 32.3352 118.184 29.2798C118.294 28.4604 117.429 28.0085 117.027 27.4115C116.405 26.7582 116.136 25.7281 116.601 24.9133C117.183 23.7638 118.805 23.4945 119.867 24.1009C120.991 24.8618 121.58 26.1542 121.977 27.4091C123.018 27.6245 124.137 27.5941 125.105 27.1071C125.858 26.8168 126.566 26.194 127.424 26.3392C128.284 27.0626 128.777 28.2028 128.976 29.2868C128.466 31.6094 127.707 33.871 127.171 36.1865C127.05 36.7789 127.09 37.3876 127.106 37.9917C127.524 37.9027 128.001 37.9284 128.342 37.6264C129.228 36.9638 130.035 36.1959 130.771 35.3694C131.15 34.9948 131.145 34.4399 131.255 33.9553C131.795 30.9983 133.441 28.2098 135.907 26.4656C137.089 25.6508 138.466 25.0749 139.906 24.9648C140.879 24.925 142.113 25.22 142.48 26.2455C142.879 27.4419 142.494 28.945 141.421 29.6661C140.628 29.8628 140.058 29.1019 139.39 28.8232C138.571 28.4229 137.692 29.0386 137.262 29.727C136.208 31.4057 135.935 33.4566 135.937 35.4069C135.96 35.9196 135.904 36.5073 136.262 36.9311C137.176 38.1509 139.025 38.3382 140.346 37.7341C142.008 36.807 143.204 35.2688 144.441 33.8617C144.852 32.4405 144.791 30.921 145.243 29.5069C145.717 27.9265 146.18 26.2572 147.253 24.9672C147.718 24.3701 148.8 24.1711 149.282 24.8384C150.13 25.8545 150.423 27.2382 150.266 28.5376C149.99 31.0217 149.242 33.4192 148.782 35.8705C148.695 36.5167 148.578 37.3689 149.191 37.8044C149.721 37.9776 150.371 38.0268 150.841 37.6709C151.813 36.9451 152.613 36.0227 153.452 35.154C153.999 34.6085 154.469 33.8921 155.275 33.7188C155.696 35.2383 155.184 36.8561 154.282 38.0994C153.034 39.8413 151.248 41.3186 149.118 41.7822C148.19 41.9227 147.099 42.0233 146.339 41.3584C145.205 40.4734 144.908 38.982 144.647 37.6498C143.896 38.4342 143.277 39.3473 142.412 40.0145C140.264 41.7892 137.237 42.4448 134.565 41.6394C133.183 41.2203 132.174 40.1386 131.306 39.0405C130.292 40.2135 129.093 41.335 127.548 41.7236C126.377 42.0444 124.881 41.9952 124.091 40.937C122.877 39.3824 122.987 37.294 123.156 35.442C123.308 33.7282 124.009 32.1432 124.523 30.523C123.583 30.6705 122.634 30.6682 121.69 30.6892C121.248 30.8157 121.199 31.3284 121.012 31.6773C119.579 35.2055 117.419 38.7057 113.99 40.5741C111.428 42.0444 108.27 42.3324 105.435 41.6019C103.869 41.2367 102.864 39.8974 102.088 38.5887C100.409 40.3259 98.2472 41.9226 95.7227 41.8805C93.9812 42.0023 92.4829 40.3657 92.4735 38.6753C92.4034 37.1043 92.9527 35.6036 93.294 34.0911C93.9508 31.7381 94.6194 29.3781 94.9934 26.9619C95.0845 26.0793 95.1827 25.1521 94.8905 24.2999C94.5913 23.8223 93.9368 23.9183 93.467 23.9885C92.2865 24.4146 91.4801 25.4659 90.7695 26.4492C88.7429 29.5256 87.3381 33.0914 87.102 36.7929C87.0038 38.0455 87.684 39.4386 86.8963 40.5741C86.1833 41.6323 84.9117 42.4682 83.5957 42.2762C82.9225 42.0678 82.6163 41.342 82.4644 40.7146C82.3358 39.654 82.4129 38.5676 82.6467 37.5257C83.563 33.5315 84.9304 29.6403 85.4961 25.5689C85.7322 23.9932 85.9005 22.3122 85.2974 20.795C84.9772 20.0154 84.0352 20.0271 83.3316 20.1161C82.6584 20.1652 82.1137 20.6077 81.6159 21.0221C80.1923 22.2724 79.3578 24.0236 78.6052 25.7257C77.6865 28.0764 77.0016 30.516 76.457 32.979C75.9427 34.8871 76.9105 36.7625 76.8777 38.6753C76.9409 39.7219 76.5365 40.8855 75.5594 41.3912C74.6524 41.8594 73.6684 42.4682 72.6025 42.2457C71.3846 41.527 71.3542 39.9209 71.3823 38.6706C71.623 34.3674 72.4716 30.1297 73.1962 25.892C73.5421 23.9136 74.1756 21.8392 73.5912 19.8515C73.3762 18.9805 72.2729 18.7136 71.5669 19.1655C70.6226 19.7368 69.8582 20.7271 68.6568 20.7224C68.423 19.7017 68.5539 18.5708 69.2131 17.7326ZM108.467 28.5025C107.564 29.4882 107.251 30.8695 107.176 32.1713C108.301 31.5297 109.535 30.9515 110.32 29.8792C110.643 29.4999 110.613 28.9614 110.545 28.4978C110.056 27.861 108.976 27.8844 108.467 28.5025Z" fill="#10103A"/>
<path d="M167.781 19.0648C170.043 16.6814 173.314 15.2907 176.602 15.3609C179.279 15.3352 182.201 15.7707 184.265 17.6249C186.172 19.299 186.747 22.1951 185.871 24.5387C185.331 26.009 184.078 26.9947 182.851 27.8727C184.73 29.048 186.511 30.7923 186.834 33.089C186.953 34.3861 187.044 35.7347 186.675 37.0013C186.023 38.8322 184.571 40.3095 182.872 41.2086C180.931 42.2036 178.732 42.4893 176.584 42.6016C173.685 42.4939 170.822 41.7471 168.192 40.5319C167.133 40.0075 166.044 39.3871 165.371 38.385C165.095 37.9425 164.726 37.2144 165.333 36.8725C166.266 36.8515 167.166 37.1324 168.08 37.2799C168.057 33.665 168.942 30.125 169.987 26.6903C170.717 24.6886 171.451 22.5533 173.026 21.0479C173.409 20.575 174.045 20.7318 174.576 20.7037C174.583 21.7386 174.641 22.7781 174.529 23.8106C174.139 26.5311 173.559 29.2189 172.961 31.8997C172.706 34.1965 172.533 36.512 172.472 38.8252C174.258 39.1506 176.116 39.5861 177.909 39.0452C179.77 38.577 181.385 36.91 181.387 34.9199C181.415 33.0352 181.378 30.8672 179.992 29.4179C178.739 29.2166 177.388 29.5865 176.184 29.0269C175.567 28.7717 174.966 28.0038 175.343 27.3342C175.541 26.7465 176.165 26.5007 176.717 26.3602C177.752 26.105 178.818 26.2923 179.868 26.2853C180.681 25.6836 180.85 24.5832 180.981 23.6444C181.107 22.2888 180.988 20.6569 179.847 19.7368C178.44 18.5755 176.483 18.5568 174.751 18.627C172.573 18.7253 170.544 19.615 168.655 20.6428C168.103 20.98 167.46 21.0783 166.822 21.0292C166.815 20.2519 167.271 19.6057 167.781 19.0648Z" fill="#10103A"/>
<path d="M213.678 15.6349C214.823 15.3118 215.557 16.5855 216.087 17.3955C217.013 18.7886 216.567 20.5703 215.688 21.8627C214.316 23.8926 213.336 26.2151 213.058 28.6617C213.909 27.4138 214.837 26.1121 216.27 25.494C217.964 24.8033 220.068 24.808 221.592 25.9107C223.551 27.5215 223.406 31.0054 221.344 32.4663C220.421 32.9837 219.051 33.1102 218.243 32.3188C217.443 31.6188 218.453 30.6308 218.287 29.7692C218.348 29.0598 217.679 28.6266 217.039 28.6734C216.169 28.547 215.393 29.0598 214.823 29.6615C214.103 30.4434 213.528 31.3753 213.266 32.4148C215.253 32.3211 216.805 33.7821 217.721 35.4046C218.397 36.3435 218.825 37.7576 220.089 38.0221C221.609 37.9613 222.74 36.8047 223.694 35.7464C224.262 35.0581 224.926 34.4096 225.288 33.5808C225.781 30.9164 225.783 28.1654 226.342 25.5174C227.331 24.9485 228.521 24.6371 229.659 24.8338C230.568 25.096 230.917 26.1261 230.963 26.983C231.239 29.7387 230 32.3118 229.512 34.9715C229.371 35.9173 229.28 36.9803 229.83 37.8231C230.599 38.6847 232.036 38.3148 232.695 37.4977C234.353 35.5287 234.586 32.8596 234.972 30.42C235.192 29.1956 235.166 27.9547 235.201 26.7185C235.234 25.4589 236.58 24.8619 237.66 24.7214C238.28 24.6722 239.093 24.499 239.568 25.0094C240.077 25.8054 239.928 26.7934 239.911 27.6878C239.699 30.5231 238.892 33.2717 238.534 36.0883C238.467 36.7087 238.499 37.3338 238.567 37.9542C239.124 37.9004 239.762 37.9379 240.194 37.5094C241.597 36.3224 242.543 34.6367 244.14 33.6697C244.31 34.2387 244.474 34.8521 244.264 35.4374C243.583 37.5633 242.214 39.4644 240.409 40.7708C239.126 41.6511 237.448 42.2388 235.914 41.7167C234.778 41.2554 234.631 39.8881 234.385 38.8486C233.429 39.9116 232.417 40.9862 231.064 41.5317C229.598 42.1943 227.789 42.0913 226.466 41.1548C225.746 40.649 225.295 39.8788 224.813 39.1647C223.264 40.7544 221.127 41.8314 218.892 41.8993C217.689 41.9625 216.625 41.1922 215.9 40.2955C214.395 38.4904 213.703 36.2006 212.686 34.1216C212.361 36.0789 212.457 38.0713 212.291 40.0427C212.21 41.019 211.286 41.5902 210.496 41.9836C209.753 42.3418 208.671 42.5478 208.124 41.7588C207.336 40.6654 207.558 39.2162 207.397 37.9496C206.742 38.3265 206.104 38.7901 205.344 38.9235C204.218 39.1647 203.061 38.7667 201.939 38.9914C201.235 39.6142 200.62 40.347 199.818 40.8551C197.701 42.2435 194.956 42.3371 192.586 41.6183C190.45 41.0119 188.825 39.1038 188.344 36.9616C187.509 32.6419 189.611 27.7276 193.657 25.7937C196.163 24.698 199.22 24.6043 201.628 26.0138C202.076 26.2479 202.341 26.6974 202.6 27.1142C200.999 27.7908 199.208 27.2523 197.591 27.847C194.737 28.7507 192.963 31.7639 193.072 34.6905C193.042 36.2077 193.905 37.8442 195.429 38.2867C196.787 38.6309 198.243 38.378 199.484 37.7552C198.741 36.9241 197.815 36.1842 197.448 35.0909C196.974 33.7189 196.787 32.1198 197.488 30.7876C198.142 29.6006 199.262 28.5236 200.669 28.3948C201.74 28.2637 203.04 28.3433 203.778 29.2471C204.559 30.0665 204.772 31.2512 204.725 32.3492C204.741 33.555 204.281 34.6835 203.97 35.8307C205.744 35.8963 207.778 34.7116 207.927 32.8105C208.271 29.9658 208.951 27.1774 209.617 24.3959C210.23 22.1179 211.02 19.8773 212.067 17.7608C212.485 16.9788 212.92 16.1406 213.678 15.6349ZM201.644 34.5969C202.076 34.7116 202.034 34.1356 202.182 33.8757C202.429 32.9158 202.787 31.4525 201.6 30.996C200.552 31.9231 200.917 33.5808 201.644 34.5969Z" fill="#10103A"/>
<path d="M91.6928 52.8821C92.2281 51.5453 93.4904 50.3559 95.0074 50.4355C95.7063 50.5058 96.7185 50.6322 96.7769 51.5195C95.7367 51.2948 94.5423 50.8359 93.5558 51.4774C92.5881 52.1821 92.3847 53.4862 92.3357 54.6053C92.3193 55.8274 92.3427 57.2743 93.3571 58.1289C94.2547 58.9811 95.6222 58.6604 96.6367 58.2155C96.7161 58.3186 96.8727 58.5293 96.9499 58.6346C95.4656 59.9153 92.8476 59.4306 91.978 57.6326C91.2207 56.1857 91.1459 54.4133 91.6928 52.8821Z" fill="#10103A"/>
<path d="M122.237 53.0484C122.494 52.9664 122.751 52.8845 123.011 52.8049C123.179 54.5632 123.053 56.3308 123.076 58.0915C122.999 58.5784 123.541 58.6323 123.852 58.8313C123.845 59.5805 123.836 60.3297 123.817 61.0813C123.644 61.0906 123.296 61.1047 123.12 61.114C123.085 60.5076 123.046 59.9059 123.013 59.3019C121.636 59.2246 120.257 59.2715 118.88 59.234C118.815 57.162 118.81 55.0853 118.89 53.0132C119.072 53.0109 119.437 53.0086 119.619 53.0062C119.626 54.8535 119.61 56.7031 119.633 58.5503C120.498 58.6042 121.365 58.5972 122.228 58.5386C122.244 56.7078 122.23 54.8792 122.237 53.0484Z" fill="#10103A"/>
<path d="M99.3714 53.5564C100.183 52.7253 101.66 52.5591 102.511 53.4207C103.317 54.0996 103.247 55.2305 103.38 56.1834C102.076 56.2372 100.772 56.1834 99.4672 56.2583C99.5397 56.9326 99.4041 57.7754 100.019 58.2413C100.898 59.0163 102.111 58.4638 103.128 58.3795C102.216 59.9388 99.6121 59.529 98.8922 57.9674C98.233 56.5954 98.2985 54.706 99.3714 53.5564ZM100.105 53.8374C99.7057 54.2869 99.6192 54.905 99.4672 55.4669C100.421 55.5231 101.377 55.5114 102.333 55.495C102.251 54.9378 102.354 54.2354 101.84 53.8585C101.379 53.4113 100.599 53.4956 100.105 53.8374Z" fill="#10103A"/>
<path d="M104.149 52.9781C105.617 52.9664 107.083 52.9688 108.548 52.9945C108.548 53.1467 108.548 53.4534 108.548 53.6079C107.957 53.6407 107.366 53.6805 106.774 53.7227C106.772 55.5582 106.779 57.3938 106.779 59.2293C106.594 59.234 106.223 59.241 106.038 59.2457C105.942 57.3961 105.987 55.5418 105.989 53.6922C105.379 53.6875 104.769 53.6711 104.159 53.6384C104.156 53.4745 104.152 53.1444 104.149 52.9781Z" fill="#10103A"/>
<path d="M109.895 52.9735C110.08 52.9782 110.454 52.9852 110.638 52.9899C110.648 53.8 110.692 54.61 110.725 55.4201C111.674 55.4576 112.758 55.3171 113.562 55.9258C114.327 56.4573 114.273 57.5788 113.96 58.349C113.036 59.6555 111.232 59.1427 109.881 59.2457C109.893 57.155 109.883 55.0642 109.895 52.9735ZM110.727 56.1482C110.715 56.9513 110.722 57.7567 110.741 58.5621C111.372 58.5363 112.022 58.5879 112.641 58.4169C113.38 58.0845 113.352 57.0567 113.025 56.4479C112.34 56.0405 111.489 56.2021 110.727 56.1482Z" fill="#10103A"/>
<path d="M125.771 52.9969C127.075 53.0296 128.84 52.5146 129.729 53.7812C130.254 54.5445 129.714 55.3616 129.193 55.9422C129.565 56.277 129.993 56.5954 130.191 57.073C130.439 57.8878 129.918 58.7868 129.128 59.0608C128.043 59.4096 126.888 59.2645 125.771 59.2223C125.752 57.1456 125.757 55.0712 125.771 52.9969ZM126.599 53.6688C126.603 54.308 126.603 54.9472 126.603 55.5887C127.335 55.577 128.095 55.6636 128.798 55.4107C129.186 55.008 129.189 54.1862 128.77 53.8093C128.069 53.5939 127.321 53.6993 126.599 53.6688ZM126.613 56.3332C126.603 57.0871 126.603 57.841 126.603 58.5949C127.389 58.5761 128.207 58.6534 128.962 58.3842C129.457 57.8386 129.542 56.7008 128.719 56.4198C128.024 56.291 127.314 56.3496 126.613 56.3332Z" fill="#10103A"/>
<path d="M133.216 53.2778C134.083 52.5731 135.498 52.7604 136.164 53.6477C136.746 54.3478 136.736 55.3171 136.837 56.1786C135.523 56.2653 134.205 56.1599 132.894 56.277C132.922 57.0051 132.908 57.8714 133.586 58.335C134.483 58.9601 135.605 58.5644 136.533 58.2296C136.311 58.8009 135.869 59.2715 135.219 59.2785C133.88 59.6625 132.501 58.7494 132.118 57.4593C131.713 56.0358 131.874 54.1581 133.216 53.2778ZM133.539 53.8467C133.141 54.2963 133.109 54.9331 132.94 55.4833C133.917 55.5161 134.897 55.5067 135.876 55.4903C135.769 55.015 135.692 54.5281 135.521 54.0715C135.049 53.4604 134.144 53.423 133.539 53.8467Z" fill="#10103A"/>
<path d="M137.606 52.9969C139.109 52.9571 140.61 52.9641 142.11 52.9899C142.094 53.1374 142.059 53.4324 142.043 53.5775C141.437 53.6243 140.834 53.6735 140.229 53.7203C140.245 55.5512 140.257 57.3821 140.219 59.213C140.032 59.213 139.654 59.213 139.464 59.213C139.392 57.3797 139.418 55.5442 139.408 53.711C138.805 53.6782 138.204 53.6407 137.604 53.6009C137.604 53.4487 137.606 53.1467 137.606 52.9969Z" fill="#10103A"/>
<path d="M144.429 53.032C145.24 52.662 146.227 52.8821 146.909 53.4206C147.952 54.4203 148.087 56.0171 147.767 57.3563C147.519 58.5597 146.283 59.5149 145.046 59.3183C143.721 59.227 142.744 57.8995 142.76 56.6188C142.592 55.2421 143.001 53.5728 144.429 53.032ZM144.646 53.7203C143.992 53.9849 143.814 54.7458 143.761 55.3826C143.7 56.2348 143.676 57.1456 144.041 57.9439C144.34 58.5667 145.112 58.7119 145.736 58.5971C146.465 58.4262 146.832 57.6185 146.865 56.9278C146.9 55.9422 147.04 54.809 146.367 53.9895C145.918 53.5868 145.203 53.5189 144.646 53.7203Z" fill="#10103A"/>
<path d="M149.343 52.9992C149.63 52.9969 149.922 52.9969 150.214 52.9969C150.247 53.8936 150.17 54.7973 150.268 55.6917C150.803 56.5345 151.975 56.1599 152.779 56.0194C152.797 55.001 152.786 53.9849 152.783 52.9664C153.073 52.9735 153.361 52.9805 153.653 52.9875C153.704 55.0665 153.756 57.1479 153.665 59.227C153.372 59.227 153.083 59.227 152.795 59.2317C152.793 58.3748 152.772 57.5155 152.737 56.661C151.694 56.9208 150.357 57.0519 149.639 56.0663C149.205 55.1087 149.429 54.0153 149.343 52.9992Z" fill="#10103A"/>
<path d="M155.902 53.0133C156.161 53.0086 156.423 53.0016 156.685 52.9969C156.701 53.8444 156.734 54.6896 156.783 55.5372C157.692 55.5582 158.601 55.5465 159.513 55.5676C159.55 54.7013 159.576 53.8351 159.595 52.9688C159.871 52.9735 160.147 52.9828 160.425 52.9922C160.425 55.0642 160.432 57.1362 160.418 59.2083C160.137 59.2176 159.857 59.227 159.576 59.2387C159.579 58.246 159.588 57.2533 159.513 56.2629C158.597 56.1927 157.678 56.181 156.764 56.2536C156.759 57.2439 156.752 58.2343 156.687 59.2247C156.425 59.2223 156.166 59.2223 155.906 59.2223C155.911 57.1526 155.92 55.0829 155.902 53.0133Z" fill="#10103A"/>
<path d="M162.629 52.9969C162.907 52.9922 163.185 52.9899 163.466 52.9852C163.47 53.7976 163.468 54.61 163.508 55.4201C164.497 55.4576 165.691 55.2983 166.432 56.1108C167.299 57.0122 166.857 58.7026 165.668 59.0795C164.686 59.3651 163.646 59.22 162.638 59.2457C162.613 57.162 162.629 55.0806 162.629 52.9969ZM163.534 56.1342C163.463 56.9536 163.496 57.7778 163.573 58.5972C164.324 58.5246 165.277 58.7166 165.815 58.0493C166.056 57.5272 166.046 56.8576 165.675 56.3964C164.999 56.1037 164.251 56.1529 163.534 56.1342Z" fill="#10103A"/>
<path d="M167.989 53.0016C168.267 53.0039 168.545 53.0086 168.826 53.0133C168.826 55.0853 168.821 57.1597 168.84 59.2317C168.559 59.2223 168.281 59.2177 168.003 59.213C167.97 57.1433 167.87 55.0713 167.989 53.0016Z" fill="#10103A"/>
<path d="M170.691 52.9992C170.992 52.9992 171.294 53.0039 171.598 53.0133C171.944 53.6875 172.28 54.3712 172.711 54.9986C172.778 54.9799 172.914 54.9425 172.979 54.9261C173.412 54.3244 173.734 53.6524 174.101 53.0133C174.387 53.0156 174.674 53.0179 174.962 53.025C174.529 53.732 174.073 54.4227 173.624 55.1181C173.44 55.406 173.201 55.776 173.442 56.1084C174.057 57.1784 174.894 58.1079 175.478 59.2012C175.172 59.2036 174.87 59.2036 174.569 59.2036C174.02 58.2788 173.484 57.3469 172.851 56.4783C172.217 57.3446 171.661 58.2624 171.137 59.1989C170.841 59.2036 170.544 59.2106 170.249 59.2153C170.927 58.0376 171.733 56.9419 172.414 55.7666C171.839 54.8441 171.17 53.9779 170.691 52.9992Z" fill="#10103A"/>
<path d="M179.667 55.0713C179.884 53.8046 181.095 52.5825 182.453 52.8658C182.986 52.9243 183.358 53.3317 183.685 53.7157C182.774 53.9615 181.649 53.1655 180.936 54.0341C180.464 54.8746 180.436 55.886 180.478 56.8272C180.518 57.5483 180.731 58.4333 181.514 58.6745C182.236 58.8103 182.911 58.4685 183.573 58.2343C183.543 58.4544 183.505 58.6745 183.456 58.8946C182.516 59.5174 181.051 59.5478 180.289 58.6277C179.443 57.6724 179.408 56.2559 179.667 55.0713Z" fill="#10103A"/>
<path d="M185.181 53.9287C185.878 52.9571 187.17 52.6995 188.292 52.8611C188.856 53.0437 189.433 53.4768 189.449 54.1254C189.606 55.5723 189.372 57.0379 189.564 58.4872C189.608 58.8173 189.599 59.1497 189.578 59.4822C189.253 59.2317 188.942 58.9695 188.641 58.6955C188.026 59.0233 187.385 59.5056 186.651 59.3839C186.004 59.2996 185.23 59.0046 185.071 58.2905C184.781 57.5436 185.06 56.6797 185.658 56.174C186.467 55.3967 187.664 55.4177 188.711 55.3826C188.613 54.8043 188.87 53.9872 188.227 53.6688C187.205 53.1935 186.214 54.205 185.181 53.9287ZM186.876 56.2114C185.969 56.4643 185.663 57.8105 186.326 58.4567C187.018 58.9554 188.14 58.5761 188.475 57.8129C188.58 57.2275 188.552 56.6305 188.549 56.0382C187.988 56.0592 187.411 56.0288 186.876 56.2114Z" fill="#10103A"/>
<path d="M192.432 52.9992C193.538 52.9641 194.646 52.9852 195.754 52.9711C195.714 55.0595 195.751 57.1456 195.733 59.234C195.44 59.2293 195.151 59.227 194.861 59.2247C194.83 57.354 194.893 55.481 194.781 53.6126C194.216 53.6384 193.65 53.6759 193.084 53.711C193.08 55.09 192.942 56.469 192.652 57.8199C192.544 58.2671 192.399 58.7377 192.058 59.0678C191.679 59.2738 191.221 59.1849 190.81 59.2317C191.21 58.7026 191.866 58.2975 191.969 57.5975C192.205 56.0733 192.35 54.5398 192.432 52.9992Z" fill="#10103A"/>
<path d="M199.353 53.018C200.667 52.428 202.334 53.327 202.661 54.7084C202.981 56.0242 203.037 57.6818 201.962 58.6815C200.889 59.7749 198.82 59.4728 198.119 58.0985C197.266 56.4549 197.488 53.8585 199.353 53.018ZM199.604 53.7391C198.975 53.9685 198.818 54.6896 198.736 55.2773C198.652 56.174 198.652 57.1152 198.982 57.9674C199.41 58.7517 200.473 58.7611 201.181 58.3771C201.815 57.8667 201.869 56.9864 201.883 56.2349C201.857 55.4599 201.848 54.5913 201.319 53.9685C200.856 53.5728 200.153 53.4768 199.604 53.7391Z" fill="#10103A"/>
<path d="M204.818 53.0133C205.031 53.0109 205.459 53.0063 205.674 53.0039C205.662 53.8374 205.665 54.6732 205.646 55.5091C206.576 55.5746 207.511 55.5535 208.442 55.488C208.439 54.6615 208.437 53.8374 208.446 53.0133C208.727 53.0086 209.007 53.0016 209.292 52.9969C209.32 55.0689 209.299 57.1409 209.288 59.2153C209 59.213 208.717 59.213 208.434 59.2176C208.418 58.232 208.43 57.2486 208.451 56.2653C207.523 56.1974 206.593 56.188 205.667 56.2606C205.676 57.244 205.667 58.2296 205.667 59.2153C205.452 59.2153 205.022 59.2176 204.807 59.22C204.809 57.1503 204.797 55.083 204.818 53.0133Z" fill="#10103A"/>
<path d="M212.915 53.0414C213.638 52.744 214.489 52.7815 215.15 53.2169C216.113 53.7859 216.424 54.9823 216.473 56.0288C216.454 57.0332 216.23 58.1477 215.405 58.8102C214.498 59.4986 213.067 59.5314 212.233 58.7096C211.253 57.7918 211.106 56.2981 211.382 55.0502C211.518 54.1745 212.086 53.3738 212.915 53.0414ZM213.166 53.7437C212.598 54.0294 212.385 54.6919 212.34 55.2843C212.259 56.1529 212.214 57.0824 212.579 57.8971C212.873 58.5925 213.771 58.7447 214.428 58.5527C215.103 58.3607 215.377 57.5834 215.41 56.9466C215.473 55.982 215.531 54.9237 215.003 54.0692C214.54 53.6079 213.75 53.416 213.166 53.7437Z" fill="#10103A"/>
<path d="M218.493 52.9805C219.727 53.1116 221.291 52.5497 222.251 53.5751C222.936 54.2775 222.511 55.3287 221.952 55.9656C222.434 56.401 222.997 56.8997 222.948 57.6185C222.824 58.3326 222.303 59.0186 221.562 59.145C220.545 59.3229 219.51 59.2387 218.486 59.2316C218.467 57.1479 218.451 55.0642 218.493 52.9805ZM219.348 53.6969C219.334 54.3314 219.33 54.9658 219.334 55.6027C220.11 55.6027 220.886 55.5441 221.655 55.4224C221.665 54.905 221.662 54.3852 221.662 53.8678C220.912 53.6196 220.122 53.5962 219.348 53.6969ZM219.341 56.3706C219.327 57.0941 219.33 57.8198 219.395 58.5433C220.201 58.5901 221.01 58.5503 221.81 58.4192C221.945 57.8105 221.962 57.1854 221.887 56.5673C221.055 56.3402 220.192 56.3355 219.341 56.3706Z" fill="#10103A"/>
<path d="M50.2843 12.2581C51.5139 11.235 52.6312 10.0574 54.0477 9.27771C54.8916 10.2119 55.5928 11.2608 56.1304 12.4033C56.7966 12.3448 57.4768 12.0217 58.1383 12.2652C59.1598 12.5812 60.179 12.9137 61.1771 13.2977C61.3244 13.5037 61.2425 13.7683 61.2215 14.0001C60.8615 15.7115 60.2304 17.3457 59.7255 19.0127C59.4941 20.6095 58.323 21.8058 57.7994 23.2949C56.5535 24.2057 55.165 25.0415 53.62 25.3084C52.1286 25.6853 50.635 24.9151 49.1343 25.2405C48.4634 26.0412 48.2835 27.1229 47.7271 27.9985C46.4555 30.0471 45.0156 32.0044 43.3677 33.7604C43.0685 35.1324 44.0409 36.2421 44.5645 37.4128C44.4803 37.3542 44.3167 37.2348 44.2349 37.1763C43.8913 36.1953 43.1456 35.3243 43.1129 34.2591C43.0498 33.6269 43.6131 33.2453 43.9801 32.8262C46.1984 30.4779 47.8674 27.6684 49.1226 24.6997C51.1866 25.2803 53.5498 25.6174 55.5087 24.5287C56.3151 24.0511 57.215 23.6601 57.8555 22.9531C57.9373 22.6112 57.8859 22.2226 58.1243 21.937C58.7811 21.0239 59.4123 20.0522 59.639 18.9308C59.9312 17.5635 60.373 16.2383 60.7891 14.9061C60.9083 14.4379 61.0929 13.9532 60.9971 13.4639C60.0317 12.998 58.9705 12.7662 57.963 12.401C57.3249 12.1504 56.7779 12.6023 56.2847 12.9371C55.5554 11.7197 54.95 10.3828 53.8584 9.43223C51.771 11.4059 49.2091 12.9886 47.7154 15.5078C47.5214 15.0045 47.3064 14.5128 47.0376 14.0469L46.9815 13.9439C47.3695 14.1639 47.7669 14.3606 48.1759 14.5409C48.7813 13.6957 49.4849 12.9254 50.2843 12.2581Z" fill="#FEFEFE"/>
<path d="M15.8529 4.17841C18.6813 2.60742 21.5845 1.1371 24.6443 0.0765088C25.2614 -0.204444 25.827 0.348096 26.2174 0.767184C27.4516 2.26326 28.4076 3.96536 29.3169 5.67449C30.9251 5.46143 32.8045 4.745 34.2467 5.84774C35.6352 7.12373 36.7455 8.67365 37.8511 10.1955C38.5267 11.1765 39.1952 12.1785 39.6463 13.2883C40.8198 16.14 41.7524 19.0853 42.5822 22.054C43.1339 23.9622 43.3232 25.9593 43.3653 27.94C43.3466 29.8528 41.4298 30.8572 39.9502 31.6228C37.4982 32.6506 35.5206 34.4674 33.5384 36.1906C33.2065 36.4481 32.8278 36.9187 33.2089 37.3121C34.2257 38.6981 35.3594 39.9975 36.444 41.332C37.2107 42.2826 38.0872 43.1746 39.1788 43.7459C39.7048 44.0432 40.3149 43.8442 40.8618 43.7248C42.1919 43.376 43.5593 43.191 44.9314 43.088C43.959 40.4822 43.0287 37.8482 41.7384 35.3805C41.4018 34.6688 41.1634 33.737 41.6285 33.0346C42.269 32.2783 43.0918 31.7047 43.7346 30.9485C45.3685 29.1902 46.4204 27.0081 47.5284 24.9057C47.699 24.5475 47.9187 24.1893 47.9234 23.7795C47.4395 23.0725 46.8038 22.4567 46.5046 21.6396C45.9482 20.1248 45.9763 18.4204 46.5139 16.9056C46.8622 15.9878 46.8038 14.9881 47.0375 14.0469C47.3063 14.5128 47.5214 15.0044 47.7154 15.5078C49.209 12.9886 51.7709 11.4059 53.8583 9.43223C54.9499 10.3828 55.5553 11.7196 56.2846 12.9371C56.7779 12.6023 57.3248 12.1504 57.963 12.401C58.9704 12.7662 60.0317 12.998 60.9971 13.4639C61.0929 13.9532 60.9082 14.4379 60.789 14.9061C60.3729 16.2383 59.9312 17.5635 59.639 18.9308C59.4122 20.0522 58.7811 21.0239 58.1243 21.937C57.8858 22.2226 57.9373 22.6112 57.8554 22.9531C57.215 23.6601 56.315 24.0511 55.5086 24.5287C53.5498 25.6174 51.1866 25.2803 49.1225 24.6997C47.8673 27.6684 46.1983 30.4779 43.98 32.8262C43.6131 33.2453 43.0497 33.6269 43.1128 34.2591C43.1456 35.3243 43.8912 36.1953 44.2348 37.1763C44.4335 37.9676 44.7187 38.7356 45.1044 39.4543C45.4059 38.7683 45.9435 38.1011 45.8267 37.305C45.6817 36.0735 45.4971 34.828 45.7308 33.5941C46.2989 31.192 48.4353 29.5016 50.7121 28.8086C53.7508 27.8089 57.0327 28.6681 59.847 29.9605C59.0336 32.6834 57.8695 35.4203 55.8709 37.4877C54.1295 39.2881 51.4788 39.5035 49.1202 39.4403C48.2273 39.4403 47.4068 39.0587 46.6121 38.7004C46.2872 39.3864 45.836 40.035 45.6864 40.7889C45.7262 41.6036 46.1773 42.3294 46.4344 43.0903C48.3044 43.4275 50.1861 43.7225 52.0257 44.2235C53.6737 44.481 55.4058 45.2022 56.2519 46.731C54.6017 46.9815 53.0682 46.1668 51.4694 45.9326C49.4592 45.5955 47.4325 45.2443 45.3872 45.2279C43.5593 45.2045 41.8225 45.8952 40.011 46.0075C39.1952 46.0754 38.4776 45.5814 37.6828 45.5229C36.7946 45.7008 36.0349 46.2393 35.1981 46.5624C35.2285 48.0726 35.1817 49.6974 34.3262 51.0062C33.487 52.4765 31.8928 53.2374 30.4179 53.9187C28.0734 54.9091 25.5348 55.5646 22.9776 55.4827C21.5985 55.3235 20.2053 55.2251 18.8496 54.9114C18.146 54.7686 17.599 54.2793 17.0521 53.8508C17.1666 53.5137 17.1292 53.0688 17.4494 52.8441C18.4499 52.0738 19.8126 51.6336 20.3807 50.4138C20.9089 49.2572 21.3741 48.0538 22.1805 47.0564C23.9266 44.7573 26.9327 43.7108 29.7494 43.8629C31.1706 43.8653 32.5123 44.3827 33.8143 44.9025C34.7633 45.3895 35.7357 44.7292 36.6146 44.3874C34.7236 42.4839 32.9891 40.4377 31.3459 38.3188C29.3754 39.8922 27.7578 41.9103 25.5793 43.2238C25.0767 43.5258 24.4783 43.6312 23.9009 43.6124C23.0898 43.5633 22.5265 42.889 21.7925 42.6291C19.822 43.3994 17.8445 44.2984 15.7127 44.5021C14.4808 44.5536 13.2466 44.5279 12.0171 44.4553C9.58375 44.1907 7.106 44.0456 4.78019 43.2261C4.79421 41.716 5.2734 40.2668 5.42533 38.7707C3.31691 38.4616 1.09395 37.6164 0 35.6545C0.942012 34.2614 2.29776 32.9714 2.31646 31.1639C2.17154 28.9537 1.0846 26.9028 1.06123 24.6762C1.21316 22.8454 2.52917 21.4383 3.73299 20.174C2.97797 18.8582 2.12712 17.5377 1.86065 16.0159C1.59417 14.5643 1.48899 13.0869 1.3651 11.6166C3.64884 11.3919 5.91621 11.0266 8.19293 10.7504C8.89652 10.7574 9.1069 9.97072 9.48791 9.52119C11.033 7.14949 13.4687 5.59254 15.8529 4.17841ZM23.6485 2.66127C19.8804 3.88576 16.3929 5.93905 13.3985 8.52615C12.0942 9.82556 10.8203 11.2608 10.2266 13.0378C9.81282 14.3653 9.66556 15.7841 9.85256 17.1654C10.091 19.5676 11.3322 21.7379 12.7511 23.6367C14.0367 25.4067 16.0797 26.3526 18.0432 27.165C18.6953 27.4366 19.3825 27.6005 20.0791 27.7175C19.7519 26.0716 19.0833 24.4702 19.1535 22.7658C19.2353 21.9768 19.4129 21.2041 19.5672 20.4292C18.9337 20.2981 18.305 20.1576 17.6762 20.0148C16.1077 19.6214 14.4551 19.6893 12.9123 19.1743C11.6852 18.8512 10.8554 17.7156 10.486 16.5544C10.091 14.679 11.04 12.8996 11.954 11.3333C12.314 10.7667 12.6248 10.0339 13.3284 9.83258C14.9273 9.59143 16.5518 9.87239 18.1554 9.75064C19.0974 9.07167 20.0417 8.32012 21.2525 8.22413C22.0566 7.97596 22.7298 8.59639 23.1833 9.18639C24.5437 11.0898 26.3179 12.7077 27.309 14.8616C27.9542 16.1517 28.1622 17.5986 28.2884 19.0197C28.4824 20.4198 28.4707 21.8456 28.3749 23.2551C28.064 26.1442 26.3319 28.736 24.0599 30.4756C23.2558 30.9766 22.246 30.9977 21.3507 30.7752C18.8543 30.1548 16.2924 29.7076 13.9058 28.722C12.2275 27.954 10.4673 27.1814 9.22845 25.7602C8.60434 25.1187 8.23034 24.2735 7.57584 23.6648C6.57305 23.0139 5.30145 22.9835 4.1514 23.1357C3.18134 23.7397 2.88447 24.9642 2.93356 26.0459C2.73955 28.1741 3.87324 30.0846 4.13738 32.1496C4.22386 33.1376 4.10932 34.1279 4.0953 35.116C4.58383 35.5187 5.07237 35.9495 5.67545 36.1719C6.60811 36.4083 7.56882 36.1531 8.46642 35.8886C10.6847 35.212 12.9053 34.5166 15.0231 33.559C17.377 32.6693 19.7776 31.8569 22.2483 31.3652C23.6532 31.0796 25.3806 31.9201 26.5517 30.8385C27.9682 29.1012 29.1697 27.1978 30.3454 25.292C31.1261 24.0605 31.7643 22.7166 32.0985 21.2908C32.2388 20.6914 32.0682 20.0873 31.9513 19.4997C31.6077 18.0106 31.2991 16.5099 30.8012 15.0606C29.7657 12.0404 28.7162 9.01548 27.3838 6.1123C26.9514 5.17814 26.5587 4.20651 25.9159 3.39643C25.3549 2.80175 24.4666 2.33115 23.6485 2.66127ZM32.9167 9.9754C32.8582 11.5206 33.0148 13.0682 33.3444 14.5783C34.013 16.8868 35.1934 19.1391 35.0438 21.6045C35.0204 22.3162 35.0905 23.0842 34.7002 23.7163C33.3304 26.0318 31.5399 28.0594 29.7423 30.0448C28.3913 31.2833 27.2436 32.7583 25.6891 33.758C24.7822 34.3761 23.7794 34.9006 23.0664 35.7551C22.4026 36.5301 21.9281 37.5579 22.1642 38.5974C22.6223 39.8828 23.8729 40.9832 25.2964 40.8755C26.2408 40.7116 26.8509 39.8992 27.3137 39.1242C29.1206 36.1719 31.3739 33.3811 34.4103 31.6275C36.2686 30.3913 38.515 29.8223 40.2377 28.3708C40.565 28.0383 41.0231 27.7175 41.0465 27.2071C41.4345 23.7397 40.1793 20.3894 38.9591 17.2099C37.8488 14.4636 36.4136 11.7009 34.0246 9.856C33.667 9.71786 33.279 9.93326 32.9167 9.9754ZM17.8655 12.3167C17.0076 13.3304 16.4326 14.7071 16.7973 16.0393C17.0824 16.6644 17.578 17.2755 18.2535 17.4815C19.0389 16.8985 19.7869 16.2243 20.3292 15.4025C20.6425 15.0536 20.411 14.5971 20.362 14.1967C20.002 14.192 19.642 14.1873 19.282 14.1803C19.0156 14.4496 18.7654 14.7375 18.4686 14.974C18.0291 15.0606 18.1554 14.6088 18.1413 14.3325C18.1109 13.5856 18.5083 12.8107 19.1652 12.4454C20.2264 12.0498 21.6008 12.4454 22.1034 13.5177C22.2109 14.1475 22.2039 14.7961 22.1221 15.4282C21.7458 16.7089 20.5326 17.5049 20.0861 18.7528C20.4438 18.6639 20.9276 18.7645 21.1427 18.3876C21.9959 17.2123 22.7509 15.9222 23.1038 14.5011C23.3376 13.6208 23.3843 12.621 22.8818 11.8227C22.4306 11.0337 21.4466 10.8229 20.6121 10.755C19.476 10.6965 18.513 11.4504 17.8655 12.3167ZM13.7235 12.5789C12.5711 13.3515 12.1012 15.0091 12.8539 16.2172C13.3097 17.1256 14.3078 17.5096 15.2148 17.8023C15.1353 16.9571 14.9249 16.1212 14.9413 15.269C15.0488 14.1405 15.729 13.1783 15.9464 12.0779C15.1821 12.0638 14.3312 12.0217 13.7235 12.5789ZM53.3137 12.9277C52.5867 13.6723 51.8411 14.4027 51.0533 15.0841C49.4825 16.4584 48.8304 18.6428 48.9659 20.6844C49.7116 20.0241 50.5064 19.3873 51.4694 19.0829C53.0566 18.5562 54.3492 17.3574 55.2515 15.9784C55.948 14.761 55.4689 13.0144 54.2767 12.2979C53.87 12.3331 53.6012 12.6819 53.3137 12.9277ZM3.58339 13.7425C3.42912 16.1048 4.82928 18.3806 6.94238 19.4037C6.90731 17.3481 6.83953 15.2831 7.22054 13.2508C5.99101 13.2555 4.78253 13.4967 3.58339 13.7425ZM56.8994 13.4171C56.8807 14.3887 57.1332 15.4142 56.7288 16.339C56.3361 17.2568 55.6021 17.9615 54.8892 18.6334C54.8611 19.0033 54.9079 19.3943 54.7723 19.7479C53.9004 20.3191 52.6428 20.462 52.2244 21.5506C54.2557 21.7028 55.7681 20.092 56.6844 18.4672C57.3552 17.1959 58.1991 15.9784 58.5754 14.576C58.5357 13.7004 57.6147 13.4592 56.8994 13.4171ZM24.7214 15.3041C24.0622 16.257 23.3376 17.2006 22.994 18.3244C22.2179 20.5018 22.3862 22.8407 22.7859 25.0766C23.8916 23.9036 24.9458 22.6159 25.5208 21.0894C26.0187 19.1391 25.5676 17.0905 24.7214 15.3041ZM51.0814 29.6655C49.7303 30.0869 48.4844 30.9391 47.6616 32.1004C46.7453 33.4045 46.7944 35.1136 47.0796 36.612C48.454 36.4762 49.5971 35.6381 50.7284 34.9216C52.9537 33.4092 55.2 31.9318 57.4557 30.4685C55.4689 29.6163 53.2178 29.2066 51.0814 29.6655ZM13.4827 37.3448C11.7974 38.0238 10.0115 38.3656 8.25371 38.7824C8.31682 40.0397 9.01106 41.5006 10.3294 41.8097C13.3471 41.9595 16.5752 41.6715 19.1348 39.9039C18.3774 38.5834 17.6037 37.2652 17.1456 35.8043C15.9043 36.2725 14.7403 36.9211 13.4827 37.3448ZM27.7531 45.1436C26.021 45.4199 24.2188 46.0825 23.1296 47.5364C22.253 48.5759 22.0777 49.9947 21.2993 51.0928C20.7991 51.856 20.0441 52.3875 19.3872 53.0009C21.5634 53.2233 24.2258 53.1695 25.7055 51.2918C26.8275 49.6412 28.0804 48.0468 29.6746 46.8293C30.5254 46.1878 31.5773 45.9443 32.5637 45.5885C30.9882 45.2326 29.3707 44.8978 27.7531 45.1436Z" fill="#10103A"/>
<path d="M23.6485 2.66129C24.4667 2.33117 25.3549 2.80176 25.9159 3.39644C26.5587 4.20652 26.9514 5.17815 27.3839 6.11232C28.7162 9.01549 29.7658 12.0404 30.8013 15.0606C31.2992 16.5099 31.6077 18.0106 31.9513 19.4997C32.0682 20.0874 32.2389 20.6914 32.0986 21.2908C31.7643 22.7166 31.1262 24.0605 30.3455 25.292C29.1697 27.1978 27.9682 29.1012 26.5517 30.8385C25.3806 31.9201 23.6532 31.0796 22.2484 31.3653C19.7776 31.8569 17.377 32.6693 15.0231 33.559C12.9054 34.5166 10.6847 35.212 8.46646 35.8886C7.56886 36.1531 6.60814 36.4083 5.67548 36.1719C5.0724 35.9495 4.58386 35.5187 4.09532 35.116C4.10935 34.128 4.22389 33.1376 4.1374 32.1496C3.87327 30.0846 2.73957 28.1741 2.93359 26.0459C2.8845 24.9642 3.18137 23.7397 4.15143 23.1357C5.30148 22.9835 6.57308 23.0139 7.57587 23.6648C8.23037 24.2735 8.60437 25.1187 9.22848 25.7603C10.4674 27.1814 12.2275 27.954 13.9058 28.722C16.2924 29.7076 18.8543 30.1548 21.3508 30.7753C22.246 30.9977 23.2558 30.9766 24.0599 30.4756C26.332 28.736 28.0641 26.1442 28.375 23.2551C28.4708 21.8456 28.4825 20.4198 28.2885 19.0197C28.1622 17.5986 27.9542 16.1517 27.3091 14.8616C26.318 12.7077 24.5438 11.0899 23.1834 9.1864C22.7299 8.5964 22.0567 7.97597 21.2526 8.22414C20.0418 8.32013 19.0974 9.07168 18.1554 9.75065C16.5519 9.8724 14.9273 9.59144 13.3285 9.8326C12.6249 10.0339 12.314 10.7668 11.954 11.3333C11.04 12.8997 10.091 14.679 10.4861 16.5544C10.8554 17.7156 11.6852 18.8512 12.9124 19.1743C14.4551 19.6893 16.1077 19.6214 17.6762 20.0148C18.305 20.1576 18.9338 20.2981 19.5673 20.4292C19.413 21.2041 19.2353 21.9768 19.1535 22.7658C19.0834 24.4702 19.7519 26.0716 20.0792 27.7176C19.3826 27.6005 18.6954 27.4366 18.0432 27.165C16.0797 26.3526 14.0367 25.4067 12.7511 23.6367C11.3322 21.738 10.091 19.5676 9.85259 17.1655C9.66559 15.7841 9.81286 14.3653 10.2266 13.0378C10.8203 11.2608 12.0943 9.82557 13.3986 8.52617C16.3929 5.93906 19.8805 3.88577 23.6485 2.66129Z" fill="#F91762"/>
<path d="M32.9168 9.97539C33.2791 9.93325 33.6671 9.71785 34.0247 9.85599C36.4137 11.7009 37.8489 14.4636 38.9592 17.2099C40.1794 20.3894 41.4346 23.7397 41.0466 27.2071C41.0232 27.7175 40.5651 28.0383 40.2378 28.3708C38.5151 29.8223 36.2687 30.3913 34.4104 31.6275C31.374 33.3811 29.1207 36.1719 27.3138 39.1242C26.8509 39.8992 26.2409 40.7116 25.2965 40.8755C23.873 40.9832 22.6224 39.8828 22.1643 38.5974C21.9282 37.5579 22.4027 36.5301 23.0665 35.7551C23.7795 34.9006 24.7822 34.3761 25.6892 33.758C27.2436 32.7583 28.3913 31.2833 29.7424 30.0448C31.54 28.0594 33.3305 26.0318 34.7003 23.7163C35.0906 23.0842 35.0205 22.3162 35.0439 21.6045C35.1935 19.1391 34.013 16.8868 33.3445 14.5783C33.0149 13.0682 32.8583 11.5206 32.9168 9.97539Z" fill="#F91762"/>
<path d="M17.8655 12.3167C18.513 11.4504 19.4761 10.6965 20.6121 10.7551C21.4466 10.823 22.4307 11.0337 22.8818 11.8227C23.3844 12.621 23.3376 13.6208 23.1039 14.5011C22.7509 15.9222 21.9959 17.2123 21.1427 18.3876C20.9277 18.7645 20.4438 18.6639 20.0861 18.7528C20.5326 17.5049 21.7458 16.7089 22.1221 15.4282C22.2039 14.7961 22.2109 14.1476 22.1034 13.5178C21.6008 12.4455 20.2264 12.0498 19.1652 12.4455C18.5083 12.8107 18.111 13.5857 18.1413 14.3325C18.1554 14.6088 18.0291 15.0606 18.4686 14.974C18.7655 14.7376 19.0156 14.4496 19.282 14.1803C19.642 14.1874 20.002 14.192 20.362 14.1967C20.4111 14.5971 20.6425 15.0536 20.3292 15.4025C19.7869 16.2243 19.0389 16.8985 18.2535 17.4815C17.578 17.2755 17.0825 16.6644 16.7973 16.0393C16.4326 14.7071 17.0077 13.3305 17.8655 12.3167Z" fill="#F91762"/>
<path d="M13.7235 12.5789C14.3312 12.0217 15.1821 12.0638 15.9464 12.0779C15.7291 13.1783 15.0488 14.1405 14.9413 15.269C14.925 16.1212 15.1353 16.9571 15.2148 17.8023C14.3079 17.5096 13.3098 17.1256 12.8539 16.2172C12.1013 15.0091 12.5711 13.3515 13.7235 12.5789Z" fill="#F91762"/>
<path d="M53.3136 12.9277C53.6012 12.6819 53.87 12.3331 54.2767 12.2979C55.4688 13.0144 55.948 14.761 55.2514 15.9784C54.3491 17.3574 53.0565 18.5562 51.4694 19.0829C50.5063 19.3873 49.7116 20.0241 48.9659 20.6844C48.8303 18.6428 49.4825 16.4584 51.0533 15.0841C51.841 14.4027 52.5867 13.6723 53.3136 12.9277Z" fill="#F91762"/>
<path d="M3.58349 13.7425C4.78263 13.4967 5.99112 13.2555 7.22065 13.2508C6.83964 15.283 6.90742 17.348 6.94249 19.4037C4.82938 18.3805 3.42921 16.1048 3.58349 13.7425Z" fill="#F91762"/>
<path d="M56.8994 13.4171C57.6147 13.4592 58.5357 13.7004 58.5754 14.576C58.1991 15.9784 57.3553 17.1959 56.6844 18.4672C55.7681 20.092 54.2558 21.7028 52.2245 21.5507C52.6429 20.462 53.9005 20.3191 54.7723 19.7479C54.9079 19.3943 54.8612 19.0034 54.8892 18.6334C55.6021 17.9615 56.3361 17.2568 56.7288 16.339C57.1332 15.4142 56.8807 14.3887 56.8994 13.4171Z" fill="#F91762"/>
<path d="M24.7214 15.3041C25.5676 17.0905 26.0187 19.1391 25.5209 21.0894C24.9458 22.6159 23.8916 23.9036 22.786 25.0766C22.3863 22.8407 22.218 20.5018 22.994 18.3244C23.3376 17.2006 24.0623 16.257 24.7214 15.3041Z" fill="#F91762"/>
<path d="M13.4828 37.3448C14.7403 36.921 15.9044 36.2725 17.1456 35.8043C17.6038 37.2652 18.3775 38.5834 19.1349 39.9038C16.5753 41.6715 13.3472 41.9595 10.3295 41.8096C9.01114 41.5006 8.3169 40.0396 8.25378 38.7824C10.0116 38.3656 11.7974 38.0238 13.4828 37.3448Z" fill="#F91762"/>
</svg>
